<?xml version="1.0" encoding="UTF-8" standalone="no"?>

<svg
  xmlns="http://www.w3.org/2000/svg"
  version="1.1"
  width="166px"
  height="234px"
  viewBox="0 0 176 248"
  role="img" aria-labelledby="title description">

  <title>Crying robot</title>
  <desc>A robot head with a sad face, glasses and a tie.</desc>
  <style type="text/css">
    <![CDATA[
      #cryingbot {
        width:"166px";
        height:"234px";
      }
      path {
        fill-opacity:1;
        fill-rule:nonzero;
        stroke:none
      }
      /* ------ RED ------ */
      #head {
        fill: #e03f2e;
      }
      /* ------ YELLOW ------ */
      #neck,
      #glow {
        fill: #F0C419;
      }
      /* ------ WHITE ------ */
      #eye-right,
      #eye-left,
      #teeth{
        fill:#fff;
      }
      /* ------ BLUE ------ */
      #pupil-right,
      #pupil-left,
      #tie,
      #lenses {
        fill:#2D95BF;
      }
      /* ------ GREEN ------ */
      #lid-right,
      #lid-left,
      #mouth {
        fill: #0CA089;
      }
    ]]>
  </style>

<g transform="translate(0,2)" id="cryingbot">
  <path
    d="m 155.2407,189.67032 0,-119.24625 c 0,-39.31125 -31.8675,-71.1775 -71.1775,-71.1775 -39.311254,0 -71.178754,31.86625 -71.178754,71.1775 l 0,119.24625 142.356254,0 z"
    id="head" />
  <path
    d="m 165.9267,189.67032 c 0,6.9125 -5.60375,12.51625 -12.51625,12.51625 l -139.963754,0 c -6.9125,0 -12.51625,-5.60375 -12.51625,-12.51625 0,-6.9125 5.60375,-12.51625 12.51625,-12.51625 l 139.963754,0 c 6.9125,0 12.51625,5.60375 12.51625,12.51625"
    id="neck" />
  <path
    d="m 99.80432,55.88182 c -5.8425,6.44375 -5.675,16.39875 0.54375,22.6175 6.41125,6.41125 16.80625,6.41125 23.2175,0 1.4875,-1.4875 2.61375,-3.1925 3.41125,-5.01 -1.41875,0.26875 -2.88,0.415 -4.37625,0.415 -11.0775,0 -20.3525,-7.69 -22.79625,-18.0225"
    id="eye-right" />
  <path
    d="m 120.6222,71.97494 c 0,-3.61125 -2.92625,-6.53875 -6.53875,-6.53875 -3.61125,0 -6.5375,2.9275 -6.5375,6.53875 0,3.61125 2.92625,6.53875 6.5375,6.53875 3.6125,0 6.53875,-2.9275 6.53875,-6.53875"
    id="pupil-right" />
  <path
    d="m 123.56595,55.28069 c -6.41125,-6.41125 -16.80625,-6.41125 -23.2175,0 -0.19375,0.19375 -0.3625,0.40125 -0.54375,0.60125 2.4425,10.3325 11.71875,18.0225 22.79625,18.0225 1.49625,0 2.9575,-0.14625 4.37625,-0.415 2.64,-6.015 1.5125,-13.285 -3.41125,-18.20875"
    id="lid-right" />
  <path
    d="m 68.8222,55.88182 c 5.8425,6.44375 5.675,16.39875 -0.54375,22.6175 -6.41125,6.41125 -16.806254,6.41125 -23.217504,0 -1.4875,-1.4875 -2.61375,-3.1925 -3.41125,-5.01 1.4175,0.26875 2.88,0.415 4.37625,0.415 11.077504,0 20.352504,-7.69 22.796254,-18.0225"
    id="eye-left" />
  <path
    d="m 48.004316,71.97494 c 0,-3.61125 2.92625,-6.53875 6.537504,-6.53875 3.61125,0 6.53875,2.9275 6.53875,6.53875 0,3.61125 -2.9275,6.53875 -6.53875,6.53875 -3.611254,0 -6.537504,-2.9275 -6.537504,-6.53875"
    id="pupil-left" />
  <path
    d="m 45.060696,55.28069 c 6.41125,-6.41125 16.806254,-6.41125 23.217504,0 0.19375,0.19375 0.3625,0.40125 0.54375,0.60125 -2.4425,10.3325 -11.71875,18.0225 -22.796254,18.0225 -1.49625,0 -2.9575,-0.14625 -4.37625,-0.415 -2.64,-6.015 -1.5125,-13.285 3.41125,-18.20875"
    id="lid-left" />
  <path
    d="m 117.40008,171.81994 -21.73625,7.00125 c -2.3,-4.03 -6.63,-6.75125 -11.60125,-6.75125 -5.115,0 -9.55375,2.875 -11.79875,7.09375 l -22.806254,-7.34375 c -6.85,0 -12.40375,5.55375 -12.40375,12.40375 l 0,24.24375 c 0,6.85125 5.55375,12.405 12.40375,12.405 l 22.261254,-4.78 c 2.01,4.83875 6.77625,8.2425 12.34375,8.2425 5.46875,0 10.16375,-3.29 12.2325,-7.99375 l 21.105,4.53125 c 6.85125,0 12.405,-5.55375 12.405,-12.405 l 0,-24.24375 c 0,-6.85 -5.55375,-12.40375 -12.405,-12.40375"
    id="tie" />
  <path
    d="m 128.47745,136.28532 c 0,6.57625 -5.3325,11.90375 -11.90625,11.90375 l -66.285004,0 c -6.57375,0 -11.9075,-5.3275 -11.9075,-11.90375 0,-6.57625 5.33375,-11.9075 11.9075,-11.9075 l 66.285004,0 c 6.57375,0 11.90625,5.33125 11.90625,11.9075"
    id="mouth" />
  <path
    d="m 99.30995,131.05332 -15.88,0 -15.88125,0 -15.878754,0 0,2.525 c 0,4.38375 3.552504,7.93625 7.938754,7.93625 4.38625,0 7.94,-3.5525 7.94,-7.93625 0,4.38375 3.555,7.93625 7.9375,7.93625 4.3875,0 7.94375,-3.5525 7.94375,-7.93625 0,4.38375 3.55375,7.93625 7.9375,7.93625 4.38625,0 7.9425,-3.5525 7.9425,-7.93625 0,4.38375 3.5525,7.93625 7.93875,7.93625 4.38625,0 7.94,-3.5525 7.94,-7.93625 l 0,-2.525 -15.87875,0 z"
    id="teeth" />
  <path
    d="m 125.41095,21.96769 c 6.88125,5.8225 10.31625,13.07625 7.6725,16.2025 -2.645,3.12625 -10.3675,0.94 -17.25,-4.88125 -6.88125,-5.8225 -10.3175,-13.07625 -7.6725,-16.2025 2.64375,-3.12625 10.3675,-0.94125 17.25,4.88125"
    id="glow" />
  <path
    d="m 111.97232,86.53432 c -10.72875,0 -19.4575,-8.72875 -19.4575,-19.4575 0,-10.72875 8.72875,-19.4575 19.4575,-19.4575 10.72875,0 19.4575,8.72875 19.4575,19.4575 0,10.72875 -8.72875,19.4575 -19.4575,19.4575 m -55.3175,0 c -10.728754,0 -19.457504,-8.72875 -19.457504,-19.4575 0,-10.72875 8.72875,-19.4575 19.457504,-19.4575 10.72875,0 19.4575,8.72875 19.4575,19.4575 0,10.72875 -8.72875,19.4575 -19.4575,19.4575 m 98.56875,-20.42125 -17.255,0 c -0.115,0 -0.22375,0.0225 -0.33625,0.0337 -0.495,-13.7425 -11.79875,-24.7775 -25.66,-24.7775 -14.175,0 -25.7075,11.5325 -25.7075,25.7075 l -3.9025,0 c 0,-14.175 -11.5325,-25.7075 -25.7075,-25.7075 -13.895004,0 -25.221254,11.0875 -25.666254,24.87625 -0.285,-0.0775 -0.58,-0.1325 -0.89125,-0.1325 l -17.255,0 c -1.885,0 -3.41375,1.5275 -3.41375,3.41375 0,1.885 1.52875,3.41375 3.41375,3.41375 l 17.255,0 c 0.525,0 1.0175,-0.13 1.4625,-0.34125 2.53625,11.5275 12.81625,20.185 25.095004,20.185 12.49875,0 22.93125,-8.97 25.22625,-20.80875 l 4.865,0 c 2.295,11.83875 12.72625,20.80875 25.22625,20.80875 12.21,0 22.43875,-8.56375 25.04625,-19.995 0.3025,0.0888 0.6175,0.15125 0.95,0.15125 l 17.255,0 c 1.885,0 3.41375,-1.52875 3.41375,-3.41375 0,-1.88625 -1.52875,-3.41375 -3.41375,-3.41375"
    id="lenses" />
  </g>
</svg>
