<?xml version="1.0" encoding="utf-8"?>
<!DOCTYPE svg PUBLIC "-//W3C//DTD SVG 1.1//EN" "http://www.w3.org/Graphics/SVG/1.1/DTD/svg11.dtd">
<svg version="1.1" xmlns="http://www.w3.org/2000/svg" xmlns:xlink="http://www.w3.org/1999/xlink" x="0px" y="0px" width="100%" height="100%" viewBox="0 0 18 32">
<title>quotes</title>
<path d="M1.109 8q0-0.906 0.469-2.008t1.219-2.047 1.781-1.586 2.031-0.641q0.563 0 0.898 0.258t0.336 0.586q0 0.266-0.438 0.711t-0.867 0.938-0.43 0.883q0 0.156 0.391 0.328t0.859 0.375 0.859 0.813 0.391 1.547q0 1.531-1.031 2.492t-2.703 0.961q-1.578 0-2.672-1.047t-1.094-2.563zM9.422 8q0-0.906 0.469-2.008t1.227-2.047 1.781-1.586 2.023-0.641q0.563 0 0.906 0.258t0.344 0.586q0 0.203-0.273 0.539t-0.602 0.633-0.602 0.672-0.273 0.688q0 0.156 0.398 0.328t0.859 0.375 0.852 0.813 0.391 1.547q0 1.531-1.023 2.492t-2.695 0.961q-1.578 0-2.68-1.047t-1.102-2.563z" fill="#F0C419"></path></svg>
