<svg style="position: absolute; width: 0; height: 0; overflow: hidden;" version="1.1" xmlns="http://www.w3.org/2000/svg" xmlns:xlink="http://www.w3.org/1999/xlink">
  <defs>
    <symbol id="icon-logo" viewBox="0 0 32 32">
      <title>logo</title>
      <path d="M25.558 24.446c-0.633-0.318-1.35-0.68-1.5-1.473-0.127-0.668 0.020-1.594 0.161-2.491 0.149-0.941 0.307-1.949 0.147-2.761 1.927-1.884 3.111-4.414 3.111-7.195-0-5.804-5.148-10.526-11.477-10.526s-11.477 4.722-11.477 10.526c0 3.262 1.627 6.183 4.176 8.116-0.017 0.686 0.135 1.474 0.286 2.25 0.218 1.119 0.444 2.276 0.143 3.012-0.264 0.649-0.66 0.938-1.283 0.938v0c-0.419 0-0.866-0.129-1.26-0.244-0.324-0.093-0.603-0.174-0.836-0.174-0.325 0-0.559 0.17-0.627 0.456-0.050 0.21-0.047 0.539 0.249 0.913 0.549 0.693 1.871 1.217 3.074 1.217 1.611 0 2.708-0.86 3.011-2.359 0.121-0.602 0.311-1.172 0.52-1.71 0.061 0.53 0.139 1.042 0.21 1.505 0.024 0.162 0.048 0.317 0.070 0.466 0.237 1.606-0.524 2.521-1.080 3.189-0.366 0.441-0.822 0.989-0.317 1.471 0.251 0.238 0.57 0.364 0.923 0.364 0.529 0 1.088-0.281 1.575-0.791 0.948-0.994 1.443-2.628 1.355-4.482-0.060-1.279 0.526-2.135 1.096-2.877 0.268 0.684 0.499 1.461 0.326 2.436-0.721 4.070-0.71 6.479 0.032 7.364 0.226 0.27 0.527 0.413 0.871 0.413h0c0.037 0 0.076-0.002 0.115-0.005 0.281-0.025 0.524-0.151 0.703-0.366 0.591-0.707 0.447-2.293 0.28-4.128-0.126-1.385-0.256-2.818-0.030-3.732 0.173-0.702 0.425-1.238 0.697-1.673 0.139 0.506 0.216 1.102 0.093 1.888-0.238 1.531 0.155 3.069 1.051 4.115 0.546 0.638 1.206 1.004 1.811 1.004h0c0.263 0 0.504-0.069 0.716-0.204 0.204-0.131 0.273-0.299 0.294-0.417 0.063-0.349-0.175-0.667-0.504-1.107-0.501-0.669-1.187-1.586-0.99-2.868 0.075-0.49 0.232-1.058 0.398-1.658 0.047-0.173 0.097-0.35 0.144-0.531 0.034 0.195 0.064 0.399 0.083 0.627 0.21 2.496 1.839 3.381 3.17 3.381h0c0.732 0 1.294-0.27 1.434-0.689 0.204-0.611-0.406-0.919-0.944-1.19zM15.999 18.792c-3.185 0-5.362-0.186-5.362-2.3 0-2.115 2.178-2.304 5.362-2.304s5.363 0.189 5.363 2.304c0 2.113-2.177 2.3-5.363 2.3zM18.314 15.516c-0.37 0-0.669 0.425-0.669 0.949s0.299 0.949 0.669 0.949c0.368 0 0.668-0.425 0.668-0.949s-0.3-0.949-0.668-0.949zM13.686 15.516c-0.368 0-0.668 0.425-0.668 0.949s0.3 0.949 0.668 0.949c0.371 0 0.669-0.425 0.669-0.949s-0.299-0.949-0.669-0.949z"></path>
    </symbol>
    <symbol id="icon-home" viewBox="0 0 31 31">
      <title>home</title>
      <path d="M15.5 0c-8.561 0-15.5 6.939-15.5 15.5s6.939 15.5 15.5 15.5 15.5-6.939 15.5-15.5-6.939-15.5-15.5-15.5zM28.975 15h-5.996c-0.055-2.215-0.449-4.331-1.148-6.268 1.35-0.563 2.598-1.312 3.736-2.197 2.023 2.271 3.288 5.22 3.408 8.465zM14.947 28.972c-1.662-1.384-3.056-3.181-4.076-5.268 1.309-0.409 2.696-0.633 4.129-0.679v5.949c-0.018 0-0.035-0.001-0.053-0.002zM16.051 2.028c1.886 1.57 3.425 3.673 4.466 6.126-1.426 0.487-2.941 0.77-4.518 0.82v-6.949c0.019 0.001 0.035 0.002 0.052 0.003zM17.717 2.198c2.76 0.459 5.236 1.748 7.164 3.614-1.047 0.803-2.191 1.483-3.428 1.998-0.91-2.157-2.187-4.064-3.736-5.612zM15 2.025v6.949c-1.577-0.051-3.093-0.333-4.518-0.82 1.041-2.453 2.58-4.556 4.466-6.126 0.018-0.001 0.034-0.002 0.052-0.003zM9.546 7.811c-1.235-0.515-2.38-1.195-3.427-1.998 1.927-1.866 4.404-3.155 7.164-3.614-1.55 1.547-2.826 3.454-3.737 5.612zM10.105 9.076c1.542 0.535 3.185 0.847 4.895 0.899v5.025h-5.979c0.054-2.094 0.425-4.095 1.084-5.924zM15 16v6.025c-1.577 0.048-3.102 0.306-4.539 0.769-0.866-2.062-1.377-4.359-1.44-6.794h5.979zM13.283 28.802c-2.473-0.411-4.719-1.488-6.545-3.052 0.985-0.683 2.050-1.261 3.188-1.7 0.872 1.808 2.013 3.413 3.357 4.752zM16 28.975v-5.949c1.432 0.046 2.82 0.27 4.129 0.679-1.021 2.087-2.414 3.884-4.076 5.268-0.017 0-0.035 0.001-0.053 0.002zM21.074 24.050c1.137 0.439 2.201 1.018 3.188 1.7-1.826 1.563-4.072 2.641-6.545 3.052 1.344-1.339 2.484-2.944 3.357-4.752zM20.539 22.794c-1.438-0.463-2.963-0.721-4.539-0.769v-6.025h5.979c-0.063 2.435-0.575 4.732-1.44 6.794zM16 15v-5.025c1.709-0.052 3.352-0.363 4.895-0.898 0.658 1.829 1.029 3.83 1.084 5.924h-5.979zM5.434 6.535c1.138 0.885 2.386 1.634 3.735 2.197-0.699 1.937-1.093 4.053-1.148 6.268h-5.996c0.12-3.245 1.385-6.194 3.409-8.465zM2.025 16h5.996c0.062 2.555 0.596 4.968 1.503 7.137-1.267 0.494-2.448 1.152-3.538 1.931-2.348-2.337-3.83-5.532-3.961-9.068zM25.014 25.067c-1.090-0.778-2.271-1.437-3.539-1.931 0.908-2.169 1.441-4.582 1.504-7.137h5.996c-0.131 3.537-1.614 6.732-3.961 9.068z"></path>
    </symbol>
    <symbol id="icon-work" viewBox="0 0 32 32">
      <title>work</title>
      <path d="M20.682 3.732c-0.473-0.472-1.1-0.732-1.768-0.732s-1.295 0.26-1.77 0.733l-1.41 1.412c-0.473 0.472-0.734 1.1-0.734 1.769 0 0.471 0.129 0.922 0.371 1.313l-13.577 5.439c-0.908 0.399-1.559 1.218-1.742 2.189-0.185 0.977 0.125 1.979 0.834 2.687l12.72 12.58c0.548 0.548 1.276 0.859 2.045 0.877 0.018 0.001 0.060 0.001 0.078 0.001 0.202 0 0.407-0.021 0.61-0.062 0.994-0.206 1.808-0.893 2.177-1.828l5.342-13.376c0.402 0.265 0.875 0.407 1.367 0.407 0.67 0 1.297-0.261 1.768-0.733l1.407-1.408c0.477-0.474 0.738-1.103 0.738-1.773s-0.262-1.3-0.732-1.768l-7.724-7.727zM16.659 29.367c-0.124 0.313-0.397 0.544-0.727 0.612-0.076 0.016-0.153 0.022-0.229 0.021-0.254-0.006-0.499-0.108-0.682-0.292l-12.728-12.588c-0.234-0.233-0.337-0.567-0.275-0.893 0.061-0.324 0.279-0.598 0.582-0.73l6.217-2.49c4.189 1.393 8.379 0.051 12.57 4.522l-4.728 11.838zM26.992 13.58l-1.414 1.413c-0.195 0.196-0.512 0.196-0.707 0l-1.768-1.767-1.432 3.589 0.119-0.303c-3.010-3.005-6.069-3.384-8.829-3.723-0.887-0.109-1.747-0.223-2.592-0.405l8.491-3.401-1.715-1.715c-0.195-0.195-0.195-0.512 0-0.707l1.414-1.415c0.195-0.195 0.512-0.195 0.707 0l7.725 7.727c0.198 0.195 0.198 0.512 0.001 0.707zM16.5 21c1.378 0 2.5-1.121 2.5-2.5s-1.121-2.5-2.5-2.5c-1.379 0-2.5 1.121-2.5 2.5s1.122 2.5 2.5 2.5zM16.5 17c0.828 0 1.5 0.672 1.5 1.5s-0.672 1.5-1.5 1.5c-0.829 0-1.5-0.672-1.5-1.5s0.671-1.5 1.5-1.5zM29.5 0c-1.379 0-2.5 1.121-2.5 2.5s1.121 2.5 2.5 2.5 2.5-1.121 2.5-2.5-1.121-2.5-2.5-2.5zM29.5 4c-0.828 0-1.5-0.672-1.5-1.5s0.672-1.5 1.5-1.5 1.5 0.672 1.5 1.5-0.672 1.5-1.5 1.5zM8 17c0 1.103 0.897 2 2 2s2-0.897 2-2-0.897-2-2-2-2 0.897-2 2zM10 16c0.552 0 1 0.447 1 1s-0.448 1-1 1-1-0.447-1-1 0.448-1 1-1zM12 23c0-0.552 0.448-1 1-1s1 0.448 1 1c0 0.552-0.448 1-1 1s-1-0.448-1-1zM28 8c0-0.552 0.448-1 1-1s1 0.448 1 1c0 0.552-0.448 1-1 1s-1-0.448-1-1z"></path>
    </symbol>
    <symbol id="icon-blog" viewBox="0 0 32 32">
      <title>blog</title>
      <path d="M29.395 2.58c-1.645-1.643-3.811-2.58-5.946-2.58-1.801 0-3.459 0.668-4.67 1.877l-4.867 4.904c-0.015 0.014-0.032 0.023-0.047 0.038-0.008 0.008-0.013 0.019-0.021 0.026l0.002 0.002-10.329 10.409c-0.476 0.473-0.821 1.062-1.013 1.705l-2.349 8.508c-0.002 0.023-0.155 0.691-0.155 1.031 0 1.932 1.569 3.5 3.504 3.5 0.385 0 1.13-0.184 1.157-0.188l8.478-2.229c0.644-0.191 1.229-0.539 1.705-1.016l15.263-15.383c2.776-2.778 2.463-7.434-0.712-10.604zM16.014 23.795c-0.082-0.902-0.337-1.787-0.719-2.627l9.455-9.454c0.578 1.826 0.281 3.736-0.986 5.004-0.008 0.008-0.018 0.013-0.025 0.021l0.014 0.013-7.728 7.79c0-0.249 0.012-0.493-0.011-0.747zM14.793 20.256c-0.373-0.613-0.797-1.205-1.322-1.729-0.611-0.611-1.312-1.090-2.044-1.492l9.532-9.532c0.748 0.332 1.465 0.805 2.098 1.438 0.541 0.539 0.959 1.143 1.281 1.771l-9.545 9.544zM10.486 16.562c-0.926-0.373-1.896-0.586-2.868-0.599l7.703-7.762c1.179-1.15 2.896-1.481 4.587-1.062l-9.422 9.423zM4.167 29.873c-0.109 0.025-0.448 0.111-0.678 0.127-0.822-0.010-1.489-0.678-1.489-1.5 0.012-0.168 0.079-0.457 0.102-0.562l1.053-3.814c1.143-0.031 2.373 0.414 3.34 1.383 0.982 0.98 1.444 2.234 1.394 3.391l-3.722 0.975zM8.874 28.637c-0.024-1.342-0.57-2.738-1.672-3.838-1.042-1.043-2.406-1.645-3.766-1.699l0.996-3.607c0.072-0.24 0.215-0.477 0.391-0.684 2.006-1.436 5.091-1.012 7.234 1.133 2.267 2.266 2.617 5.586 0.871 7.568-0.116 0.061-0.233 0.119-0.359 0.156l-3.695 0.971zM28.691 11.772l-1.684 1.697c0-0.226 0.027-0.443 0.006-0.674-0.176-1.935-1.078-3.806-2.543-5.269-1.629-1.63-3.789-2.565-5.928-2.571l1.656-1.67c0.829-0.827 1.986-1.285 3.251-1.285 1.609 0 3.262 0.728 4.533 1.995 1.193 1.191 1.904 2.671 2.006 4.168 0.094 1.397-0.367 2.678-1.297 3.609z"></path>
    </symbol>
    <symbol id="icon-about" viewBox="0 0 32 32">
      <title>about</title>
      <path d="M30.391 12.68l-3.064-0.614c-0.154-0.443-0.336-0.873-0.537-1.289l1.736-2.604c0.529-0.793 0.424-1.85-0.25-2.523l-1.924-1.924c-0.387-0.387-0.898-0.586-1.416-0.586-0.383 0-0.77 0.11-1.107 0.336l-2.604 1.735c-0.418-0.202-0.848-0.382-1.291-0.536l-0.614-3.065c-0.186-0.936-1.008-1.608-1.961-1.608h-2.72c-0.953 0-1.774 0.673-1.961 1.608l-0.614 3.065c-0.443 0.154-0.873 0.335-1.289 0.536l-2.603-1.735c-0.339-0.226-0.725-0.336-1.109-0.336-0.517 0-1.028 0.199-1.415 0.586l-1.923 1.924c-0.674 0.674-0.779 1.73-0.25 2.523l1.735 2.604c-0.202 0.417-0.382 0.847-0.536 1.29l-3.066 0.613c-0.935 0.187-1.608 1.008-1.608 1.961v2.72c0 0.953 0.673 1.775 1.608 1.961l3.065 0.615c0.154 0.443 0.335 0.873 0.536 1.289l-1.734 2.604c-0.529 0.793-0.424 1.85 0.25 2.523l1.924 1.924c0.387 0.387 0.898 0.586 1.415 0.586 0.384 0 0.771-0.111 1.108-0.336l2.604-1.736c0.417 0.203 0.847 0.383 1.29 0.537l0.613 3.064c0.187 0.936 1.008 1.609 1.961 1.609h2.72c0.953 0 1.775-0.674 1.961-1.609l0.615-3.064c0.443-0.154 0.873-0.336 1.289-0.537l2.604 1.736c0.338 0.225 0.725 0.336 1.107 0.336 0.518 0 1.029-0.199 1.416-0.586l1.924-1.924c0.674-0.674 0.779-1.73 0.25-2.523l-1.736-2.604c0.203-0.418 0.383-0.848 0.537-1.291l3.064-0.613c0.935-0.185 1.609-1.008 1.609-1.961v-2.72c0-0.953-0.674-1.774-1.609-1.961zM26.934 17.975c-0.695 0.139-1.264 0.635-1.496 1.305-0.129 0.369-0.279 0.727-0.447 1.074-0.311 0.639-0.258 1.393 0.135 1.982l1.736 2.604-1.924 1.924-2.604-1.736c-0.334-0.223-0.721-0.336-1.109-0.336-0.297 0-0.596 0.066-0.871 0.199-0.348 0.168-0.705 0.32-1.076 0.449-0.668 0.232-1.164 0.801-1.303 1.496l-0.615 3.066h-2.72l-0.613-3.066c-0.139-0.695-0.635-1.264-1.304-1.496-0.369-0.129-0.728-0.279-1.075-0.447-0.276-0.135-0.574-0.201-0.872-0.201-0.389 0-0.775 0.113-1.109 0.336l-2.604 1.736-1.924-1.924 1.735-2.604c0.393-0.59 0.444-1.344 0.137-1.98-0.168-0.348-0.319-0.705-0.448-1.076-0.232-0.668-0.802-1.164-1.496-1.303l-3.065-0.615-0.002-2.721 3.066-0.613c0.694-0.139 1.264-0.635 1.496-1.304 0.129-0.369 0.278-0.728 0.447-1.075 0.31-0.638 0.258-1.392-0.136-1.981l-1.734-2.604 1.923-1.924 2.604 1.735c0.334 0.223 0.721 0.336 1.109 0.336 0.297 0 0.595-0.066 0.871-0.199 0.347-0.168 0.705-0.319 1.075-0.448 0.669-0.232 1.165-0.802 1.304-1.496l0.614-3.065 2.72-0.001 0.613 3.066c0.139 0.694 0.635 1.264 1.305 1.496 0.369 0.129 0.727 0.278 1.074 0.447 0.277 0.134 0.574 0.2 0.873 0.2 0.389 0 0.775-0.113 1.109-0.336l2.604-1.735 1.924 1.924-1.736 2.604c-0.393 0.59-0.443 1.343-0.137 1.98 0.168 0.347 0.32 0.705 0.449 1.075 0.232 0.669 0.801 1.165 1.496 1.304l3.064 0.614 0.003 2.72-3.066 0.614zM16 9.001c-3.865 0-7 3.135-7 7 0 3.866 3.135 7 7 7s7-3.135 7-7c0-3.865-3.135-7-7-7zM16 22.127c-3.382 0-6.125-2.744-6.125-6.125s2.743-6.125 6.125-6.125c3.381 0 6.125 2.743 6.125 6.125 0 3.381-2.744 6.125-6.125 6.125zM16 12.001c-2.21 0-4 1.79-4 4s1.79 4 4 4c2.209 0 4-1.791 4-4s-1.791-4-4-4zM16 19.002c-1.656 0-3-1.344-3-3s1.344-3 3-3 3 1.344 3 3c0 1.656-1.344 3-3 3z"></path>
    </symbol>
    <symbol id="icon-gmail" viewBox="0 0 24 24">
      <title>gmail</title>
      <path d="M24 5.457v13.909c0 .904-.732 1.636-1.636 1.636h-3.819V11.73L12 16.64l-6.545-4.91v9.273H1.636A1.636 1.636 0 0 1 0 19.366V5.457c0-2.023 2.309-3.178 3.927-1.964L5.455 4.64 12 9.548l6.545-4.91 1.528-1.145C21.69 2.28 24 3.434 24 5.457z"/>
    </symbol>
    <symbol id="icon-twitter" viewBox="0 0 32 32">
      <title>twitter</title>
      <path d="M32 6.076c-1.177 0.522-2.443 0.875-3.771 1.034 1.355-0.813 2.396-2.099 2.887-3.632-1.269 0.752-2.674 1.299-4.169 1.593-1.198-1.276-2.904-2.073-4.792-2.073-3.626 0-6.565 2.939-6.565 6.565 0 0.515 0.058 1.016 0.17 1.496-5.456-0.274-10.294-2.888-13.532-6.86-0.565 0.97-0.889 2.097-0.889 3.301 0 2.278 1.159 4.287 2.921 5.465-1.076-0.034-2.088-0.329-2.974-0.821-0.001 0.027-0.001 0.055-0.001 0.083 0 3.181 2.263 5.834 5.266 6.437-0.551 0.15-1.131 0.23-1.73 0.23-0.423 0-0.834-0.041-1.235-0.118 0.835 2.608 3.26 4.506 6.133 4.559-2.247 1.761-5.078 2.81-8.154 2.81-0.53 0-1.052-0.031-1.566-0.092 2.905 1.863 6.356 2.95 10.064 2.95 12.076 0 18.679-10.004 18.679-18.68 0-0.285-0.006-0.568-0.019-0.849 1.283-0.926 2.396-2.082 3.276-3.398z"></path>
    </symbol>
    <symbol id="icon-github" viewBox="0 0 496 485">
      <title>github</title>
      <path d="M165.9 389.4c0 2-2.3 3.6-5.2 3.6-3.3.3-5.6-1.3-5.6-3.6 0-2 2.3-3.6 5.2-3.6 3-.3 5.6 1.3 5.6 3.6zm-31.1-4.5c-.7 2 1.3 4.3 4.3 4.9 2.6 1 5.6 0 6.2-2 .6-2-1.3-4.3-4.3-5.2-2.6-.7-5.5.3-6.2 2.3zm44.2-1.7c-2.9.7-4.9 2.6-4.6 4.9.3 2 2.9 3.3 5.9 2.6 2.9-.7 4.9-2.6 4.6-4.6-.3-1.9-3-3.2-5.9-2.9zM244.8 0C106.1 0 0 105.3 0 244c0 110.9 69.8 205.8 169.5 239.2 12.8 2.3 17.3-5.6 17.3-12.1 0-6.2-.3-40.4-.3-61.4 0 0-70 15-84.7-29.8 0 0-11.4-29.1-27.8-36.6 0 0-22.9-15.7 1.6-15.4 0 0 24.9 2 38.6 25.8 21.9 38.6 58.6 27.5 72.9 20.9 2.3-16 8.8-27.1 16-33.7-55.9-6.2-112.3-14.3-112.3-110.5 0-27.5 7.6-41.3 23.6-58.9-2.6-6.5-11.1-33.3 2.6-67.9 20.9-6.5 69 27 69 27 20-5.6 41.5-8.5 62.8-8.5 21.3 0 42.8 2.9 62.8 8.5 0 0 48.1-33.6 69-27 13.7 34.7 5.2 61.4 2.6 67.9 16 17.7 25.8 31.5 25.8 58.9 0 96.5-58.9 104.2-114.8 110.5 9.2 7.9 17 22.9 17 46.4 0 33.7-.3 75.4-.3 83.6 0 6.5 4.6 14.4 17.3 12.1C428.2 449.8 496 354.9 496 244 496 105.3 383.5 0 244.8 0zM97.2 344.9c-1.3 1-1 3.3.7 5.2 1.6 1.6 3.9 2.3 5.2 1 1.3-1 1-3.3-.7-5.2-1.6-1.6-3.9-2.3-5.2-1zm-10.8-8.1c-.7 1.3.3 2.9 2.3 3.9 1.6 1 3.6.7 4.3-.7.7-1.3-.3-2.9-2.3-3.9-2-.6-3.6-.3-4.3.7zm32.4 35.6c-1.6 1.3-1 4.3 1.3 6.2 2.3 2.3 5.2 2.6 6.5 1 1.3-1.3.7-4.3-1.3-6.2-2.2-2.3-5.2-2.6-6.5-1zm-11.4-14.7c-1.6 1-1.6 3.6 0 5.9 1.6 2.3 4.3 3.3 5.6 2.3 1.6-1.3 1.6-3.9 0-6.2-1.4-2.3-4-3.3-5.6-2z"/>
    </symbol>
    <symbol id="icon-codepen" viewBox="0 0 32 34">
      <title>codepen</title>
      <path d="M16.013 0c-8.844 0-16.013 7.173-16.013 16.013s7.169 16 16 16.013c8.843 0 16.013-7.169 16.013-16.013s-7.156-16.013-16.013-16.013zM16.013 29.395c-7.379 0-13.383-6.004-13.383-13.383s6.003-13.373 13.37-13.373c7.379 0 13.387 6 13.387 13.383s-5.995 13.364-13.387 13.373z"></path>
      <path class="path2" d="M25.906 12.885c-0.002-0.013-0.005-0.025-0.007-0.037-0.004-0.024-0.009-0.048-0.015-0.071-0.004-0.014-0.009-0.028-0.013-0.041-0.007-0.021-0.014-0.042-0.022-0.062-0.006-0.014-0.013-0.028-0.019-0.042-0.009-0.019-0.018-0.038-0.029-0.056-0.008-0.014-0.016-0.027-0.024-0.039-0.011-0.018-0.023-0.035-0.036-0.051-0.009-0.013-0.019-0.025-0.029-0.037-0.014-0.016-0.028-0.031-0.042-0.046-0.011-0.011-0.022-0.023-0.034-0.033-0.016-0.014-0.032-0.028-0.048-0.041-0.013-0.010-0.025-0.020-0.039-0.029-0.005-0.003-0.009-0.007-0.014-0.010l-9.050-6.022c-0.286-0.191-0.658-0.191-0.944 0l-9.050 6.022c-0.005 0.003-0.009 0.007-0.014 0.010-0.013 0.009-0.026 0.019-0.038 0.027-0.017 0.013-0.033 0.027-0.048 0.041-0.012 0.010-0.023 0.022-0.034 0.033-0.015 0.015-0.029 0.030-0.042 0.053-0.010 0.012-0.020 0.025-0.029 0.037-0.013 0.017-0.025 0.034-0.036 0.051-0.009 0.013-0.017 0.026-0.025 0.027-0.010 0.018-0.020 0.037-0.029 0.056-0.006 0.014-0.013 0.028-0.019 0.042-0.008 0.020-0.015 0.041-0.022 0.053-0.005 0.014-0.009 0.027-0.013 0.041-0.006 0.023-0.010 0.047-0.015 0.071-0.002 0.013-0.005 0.025-0.007 0.027-0.005 0.037-0.008 0.073-0.008 0.111v6.060c0 0.027 0 0.080 0 0.111 0.002 0 0 0.027 0 0.027 0.005 0.027 0 0.053 0.027 0.071 0.004 0.027 0 0.027 0.027 0.041 0.007 0.027 0.027 0.053 0.027 0.053 0.006 0.027 0 0.027 0.027 0.041 0.009 0.027 0.027 0.027 0.027 0.057 0.008 0 0.027 0.027 0.027 0.027 0.011 0.027 0.027 0.027 0.027 0.051 0.009 0 0.027 0.027 0.027 0.037 0.013 0.027 0.027 0.027 0.053 0.053 0.011 0 0.027 0.027 0.027 0.033 0.015 0.027 0.027 0.027 0.053 0.041 0.013 0 0.027 0.027 0.027 0.027 0.005 0 0 0 0.027 0.010l9.029 6.060c0.143 0.107 0.32 0.133 0.48 0.143 0.164 0 0.329-0.048 0.472-0.143l9.050-6.033c0.005-0.003 0.009-0.007 0.014-0.010 0.013-0.009 0.026-0.019 0.039-0.029 0.017-0.013 0.033-0.027 0.048-0.041 0.012-0.010 0.023-0.022 0.034-0.033 0.015-0.015 0.029-0.030 0.042-0.046 0.010-0.012 0.020-0.024 0.029-0.037 0.013-0.017 0.025-0.034 0.036-0.051 0.008-0.013 0.017-0.026 0.024-0.039 0.011-0.019 0.020-0.038 0.029-0.057 0.006-0.014 0.013-0.027 0.019-0.041 0.008-0.021 0.015-0.042 0.022-0.062 0.005-0.014 0.010-0.027 0.013-0.041 0.006-0.023 0.011-0.047 0.015-0.071 0.002-0.012 0.005-0.025 0.007-0.037 0.005-0.037 0.007-0.074 0.007-0.111v-6.034c-0.008-0.036-0.002-0.063-0.028-0.111zM16.863 8.553l6.667 4.444-2.978 1.992-3.689-2.468v-3.969zM15.162 8.56v3.969l-3.689 2.461-2.978-1.992 6.667-4.444zM7.814 14.589l2.129 1.424-2.129 1.424v-2.848zM15.162 23.473l-6.667-4.433 2.978-1.992 3.689 2.467v3.957zM16.013 18.026l-3.010-2.013 3.010-2.013 3.009 2.013-3.009 2.013zM16.863 23.473v-3.969l3.689-2.467 2.978 1.992-6.667 4.444zM24.212 17.437l-2.129-1.424 2.129-1.424v2.848z"></path>
    </symbol>
    <symbol id="icon-dabblet" viewBox="0 0 39 32">
      <title>dabblet</title>
      <path d="M0.609 21.281q0-2.203 0.844-4.141t2.289-3.391 3.391-2.289 4.148-0.836q1.188 0 2.289 0.25t2.117 0.719v-7.875q0-0.656 0.25-1.227t0.672-0.992 0.992-0.672 1.227-0.25 1.227 0.25 0.992 0.672 0.664 0.992 0.242 1.227v17.672q-0.016 1.453-0.406 2.805t-1.086 2.531-1.672 2.141-2.156 1.648-2.539 1.063-2.813 0.375q-1.469 0-2.828-0.383t-2.547-1.078-2.164-1.664-1.672-2.156-1.078-2.555-0.383-2.836zM6.891 21.281q0 0.906 0.344 1.703t0.945 1.398 1.398 0.945 1.703 0.344 1.703-0.344 1.398-0.945 0.945-1.398 0.344-1.703-0.344-1.703-0.945-1.398-1.398-0.945-1.703-0.344-1.703 0.344-1.398 0.945-0.945 1.398-0.344 1.703z"></path>
      <path class="path2" d="M24.922 21.328v-18.188q0-0.656 0.25-1.227t0.672-0.992 0.992-0.672 1.227-0.25 1.227 0.25 0.992 0.672 0.672 0.992 0.25 1.227v18.188q0 0.906 0.344 1.703t0.945 1.398 1.398 0.945 1.703 0.344q0.656 0 1.227 0.25t0.992 0.672 0.672 0.992 0.25 1.227-0.25 1.227-0.672 0.992-0.992 0.672-1.227 0.25q-1.469 0-2.828-0.383t-2.547-1.078-2.164-1.672-1.672-2.164-1.078-2.547-0.383-2.828zM30.938 11.875q0.016-0.625 0.258-1.172t0.664-0.953 0.969-0.625q0.516-0.219 1.094-0.219h0.078q0.625 0.016 1.164 0.258t0.945 0.656 0.633 0.969 0.227 1.18q-0.016 0.625-0.258 1.164t-0.664 0.945-0.969 0.633-1.172 0.227q-0.625-0.016-1.172-0.258t-0.953-0.664-0.625-0.969q-0.219-0.516-0.219-1.094v-0.078z"></path>
    </symbol>
    <symbol id="icon-musescore" viewBox="0 0 25 25">
      <title>musescore</title>
      <path d="M11.777 23.997a11.989 11.989 0 0 1-8.98-4.296 12.013 12.013 0 0 1-2.406-4.655A12.1 12.1 0 0 1 .273 9.44a11.926 11.926 0 0 1 1.72-4.064 12.056 12.056 0 0 1 4.056-3.799 11.94 11.94 0 0 1 4.13-1.44 12.211 12.211 0 0 1 3.693.007c1.708.27 3.302.89 4.751 1.848.873.577 1.692 1.29 2.385 2.08a11.966 11.966 0 0 1 2.68 5.196c.402 1.718.416 3.556.039 5.291a12.004 12.004 0 0 1-4.024 6.643 12.013 12.013 0 0 1-4.655 2.407c-.743.195-1.499.316-2.29.367a17.83 17.83 0 0 1-.809.026l-.172-.003zm-6.924-6.684a.488.488 0 0 0 .23-.133.548.548 0 0 0 .139-.232c.013-.043.014-.178.018-2.363.004-2.12.005-2.327.018-2.438.033-.298.076-.51.146-.72.101-.303.224-.516.406-.705.14-.144.26-.232.434-.315a1.76 1.76 0 0 1 .504-.148c.114-.017.382-.024.493-.012a1.803 1.803 0 0 1 1.308.807c.166.25.271.528.327.866l.017.106.004 2.438c.004 2.324.005 2.44.019 2.485a.555.555 0 0 0 .133.226.5.5 0 0 0 .201.128c.052.019.068.021.167.021a.462.462 0 0 0 .37-.145.507.507 0 0 0 .149-.3c.006-.042.008-.774.008-2.407 0-1.542.003-2.375.008-2.428.047-.48.222-.889.523-1.225.183-.204.464-.39.73-.482.21-.074.394-.101.626-.095.304.01.55.066.8.186.284.136.514.341.668.597.178.294.28.662.299 1.083.002.053.013.491.023.973.022 1.002.024 1.063.04 1.238.072.787.307 1.426.711 1.935.087.11.311.333.417.417.435.344.944.555 1.532.634.177.024.507.03.68.012.797-.082 1.53-.463 2.015-1.046.373-.45.606-.99.704-1.64.046-.302.043-.143.046-2.506.003-2.417.007-2.223-.054-2.346a.484.484 0 0 0-.332-.251.584.584 0 0 0-.416.06c-.1.06-.19.183-.22.304-.009.031-.012.478-.016 2.22-.005 2.415 0 2.23-.055 2.51-.18.917-.81 1.522-1.73 1.66a2.358 2.358 0 0 1-.512-.008c-.464-.07-.84-.256-1.13-.557-.332-.345-.53-.816-.601-1.432-.018-.151-.026-.387-.043-1.212-.018-.853-.026-1.05-.047-1.24-.129-1.123-.68-1.983-1.548-2.417a2.773 2.773 0 0 0-1.121-.294c-.55-.035-1.136.12-1.671.441a2.949 2.949 0 0 0-.813.707l-.038.049-.028-.038a2.542 2.542 0 0 0-.235-.261c-.457-.433-1.1-.722-1.78-.8a3.877 3.877 0 0 0-.65-.001c-.635.07-1.141.286-1.559.666-.48.437-.795 1.103-.912 1.926-.056.393-.057.436-.054 2.915l.002 2.184.022.064a.525.525 0 0 0 .359.339c.078.02.188.02.267 0zm11.99-8.863a.687.687 0 0 0 .546-.505.849.849 0 0 0 .008-.3.685.685 0 0 0-.455-.516.678.678 0 0 0-.895.649c0 .055.005.11.012.142a.684.684 0 0 0 .783.53zm-2.667-.138a.495.495 0 0 0 .32-.265c.046-.092.06-.158.067-.343a2.224 2.224 0 0 1 .617-1.49 1.934 1.934 0 0 1 1.146-.587c.145-.022.434-.024.581-.004.307.043.58.143.822.3.244.16.474.4.634.663.202.333.326.763.327 1.127 0 .1.012.184.036.26a.507.507 0 0 0 .94.068c.053-.111.06-.15.059-.35 0-.198-.01-.318-.043-.514-.217-1.298-1.165-2.294-2.426-2.545a2.47 2.47 0 0 0-.625-.055 3.031 3.031 0 0 0-2.738 1.638 3.3 3.3 0 0 0-.366 1.43c-.01.265.037.418.167.544a.509.509 0 0 0 .482.123z"/>
    </symbol>
    <symbol id="icon-googleplus" viewBox="0 0 20 20">
      <title>googleplus</title>
      <path d="M1.99 5.589c0 1.493 0.499 2.572 1.482 3.205 0.805 0.519 1.74 0.597 2.226 0.597 0.118 0 0.212-0.005 0.278-0.009 0 0-0.154 1.003 0.59 1.996l-0.034-0.001c-1.289 0-5.494 0.27-5.494 3.727 0 3.517 3.862 3.695 4.636 3.695 0.061 0 0.096-0.001 0.096-0.001 0.009 0 0.064 0.002 0.158 0.002 0.497 0 1.782-0.062 2.976-0.643 1.548-0.751 2.334-2.059 2.334-3.885 0-1.765-1.196-2.815-2.070-3.583-0.533-0.468-0.994-0.872-0.994-1.265 0-0.4 0.336-0.701 0.762-1.082 0.688-0.616 1.338-1.493 1.338-3.151 0-1.458-0.189-2.436-1.354-3.056 0.122-0.062 0.551-0.107 0.764-0.137 0.631-0.086 1.554-0.184 1.554-0.699v-0.099h-4.598c-0.046 0.001-4.65 0.172-4.65 4.389zM9.413 14.602c0.088 1.406-1.115 2.444-2.921 2.575-1.834 0.135-3.345-0.691-3.433-2.097-0.042-0.675 0.254-1.336 0.835-1.863 0.59-0.533 1.398-0.862 2.279-0.928 0.104-0.006 0.207-0.011 0.31-0.011 1.697 0 2.847 0.998 2.93 2.324zM8.212 4.626c0.451 1.587-0.23 3.246-1.315 3.552-0.125 0.035-0.254 0.053-0.384 0.053-0.995 0-1.98-1.006-2.345-2.392-0.204-0.779-0.188-1.459 0.046-2.114 0.23-0.643 0.643-1.079 1.163-1.225 0.125-0.036 0.255-0.053 0.385-0.053 1.2 0 1.972 0.498 2.45 2.179zM15.961 8.082v-3h-1.9v3h-3v1.9h3v3h1.9v-3h3v-1.9h-3z"></path>
    </symbol>
    <symbol id="icon-facebook" viewBox="0 0 32 32">
      <title>facebook</title>
      <path d="M17.996 32h-5.996v-16h-4v-5.514l4-0.002-0.007-3.248c0-4.498 1.22-7.236 6.519-7.236h4.412v5.515h-2.757c-2.064 0-2.163 0.771-2.163 2.209l-0.008 2.76h4.959l-0.584 5.514-4.37 0.002-0.004 16z"></path>
    </symbol>
    <symbol id="icon-skype" viewBox="0 0 32 32">
      <title>skype</title>
      <path d="M30.478 18.061c0.088-0.65 0.138-1.311 0.138-1.983 0-8.072-6.579-14.617-14.694-14.617-0.806 0-1.597 0.066-2.367 0.192-1.38-0.899-3.021-1.423-4.788-1.423-4.845 0-8.768 3.925-8.768 8.769 0 1.762 0.519 3.4 1.412 4.774-0.12 0.751-0.182 1.52-0.182 2.304 0 8.073 6.576 14.618 14.693 14.618 0.916 0 1.808-0.089 2.675-0.246 1.347 0.836 2.933 1.322 4.634 1.322 4.844 0 8.768-3.926 8.768-8.77-0-1.831-0.56-3.533-1.522-4.94zM17.296 26.85c-4.669 0.243-6.854-0.79-8.856-2.668-2.235-2.098-1.337-4.491 0.484-4.613 1.82-0.122 2.913 2.063 3.884 2.671 0.97 0.605 4.662 1.985 6.612-0.244 2.123-2.427-1.412-3.683-4.004-4.063-3.7-0.548-8.372-2.55-8.008-6.494 0.364-3.942 3.349-5.963 6.491-6.248 4.005-0.364 6.612 0.607 8.674 2.366 2.384 2.033 1.094 4.306-0.425 4.489-1.513 0.182-3.213-3.344-6.549-3.397-3.439-0.054-5.764 3.579-1.518 4.612 4.248 1.032 8.797 1.455 10.435 5.339 1.639 3.884-2.547 8.008-7.22 8.251z"></path>
    </symbol>
    <symbol id="icon-rss" viewBox="0 0 32 32">
      <title>rss</title>
      <path d="M4.259 23.467c-2.35 0-4.259 1.917-4.259 4.252 0 2.349 1.909 4.244 4.259 4.244 2.358 0 4.265-1.895 4.265-4.244-0-2.336-1.907-4.252-4.265-4.252zM0.005 10.873v6.133c3.993 0 7.749 1.562 10.577 4.391 2.825 2.822 4.384 6.595 4.384 10.603h6.16c-0-11.651-9.478-21.127-21.121-21.127zM0.012 0v6.136c14.243 0 25.836 11.604 25.836 25.864h6.152c0-17.64-14.352-32-31.988-32z"></path>
    </symbol>
    <symbol id="icon-anchor" viewBox="0 0 16 16">
      <title>anchor</title>
      <path d="M7.775 3.275a.75.75 0 001.06 1.06l1.25-1.25a2 2 0 112.83 2.83l-2.5 2.5a2 2 0 01-2.83 0 .75.75 0 00-1.06 1.06 3.5 3.5 0 004.95 0l2.5-2.5a3.5 3.5 0 00-4.95-4.95l-1.25 1.25zm-4.69 9.64a2 2 0 010-2.83l2.5-2.5a2 2 0 012.83 0 .75.75 0 001.06-1.06 3.5 3.5 0 00-4.95 0l-2.5 2.5a3.5 3.5 0 004.95 4.95l1.25-1.25a.75.75 0 00-1.06-1.06l-1.25 1.25a2 2 0 01-2.83 0z"></path>
    </symbol>
    <symbol id="icon-search" viewBox="0 0 32 32">
      <title>search</title>
      <path d="M20 0.005c-6.627 0-12 5.373-12 12 0 2.026 0.507 3.933 1.395 5.608l-8.344 8.342 0.007 0.006c-0.652 0.641-1.058 1.529-1.058 2.516 0 1.949 1.58 3.529 3.529 3.529 0.985 0 1.874-0.406 2.515-1.059l-0.002-0.002 8.341-8.34c1.676 0.891 3.586 1.4 5.617 1.4 6.627 0 12-5.373 12-12s-5.373-12-12-12zM4.795 29.697c-0.322 0.334-0.768 0.543-1.266 0.543-0.975 0-1.765-0.789-1.765-1.764 0-0.498 0.21-0.943 0.543-1.266l-0.009-0.008 8.066-8.066c0.705 0.951 1.545 1.791 2.494 2.498l-8.063 8.063zM20 22.006c-5.522 0-10-4.479-10-10s4.478-10 10-10c5.521 0 10 4.478 10 10s-4.479 10-10 10zM20 5.005c0.275 0 0.5 0.224 0.5 0.5s-0.225 0.5-0.5 0.5c-3.314 0-6 2.687-6 6 0 0.276-0.224 0.5-0.5 0.5s-0.5-0.224-0.5-0.5c0-3.866 3.133-7 7-7z"></path>
    </symbol>
    <symbol id="icon-cross" viewBox="0 0 32 32">
      <title>cross</title>
      <path d="M4.131 29.040c-0.434 0.429-1.134 0.429-1.566 0-0.432-0.427-0.432-1.122 0-1.55l12.653-12.528c0.434-0.429 1.133-0.429 1.566 0l12.653 12.528c0.432 0.429 0.434 1.122 0 1.55s-1.136 0.429-1.566 0.002l-11.87-11.426-11.869 11.424zM4.125 2.758c-0.434-0.429-1.134-0.429-1.566 0-0.432 0.427-0.432 1.122 0 1.55l12.653 12.528c0.434 0.429 1.133 0.429 1.566 0l12.653-12.528c0.432-0.429 0.434-1.122 0-1.55s-1.136-0.429-1.566-0.002l-11.87 11.426-11.869-11.424z"></path>
    </symbol>
    <symbol id="icon-warning" viewBox="0 0 512 512">
      <title>warning</title>
      <path d="M256 34.297 0 477.703h512L256 34.297zm0 387.753c-9.22 0-16.696-7.475-16.696-16.696s7.475-16.696 16.696-16.696c9.22 0 16.696 7.475 16.696 16.696S265.22 422.05 256 422.05zm-16.696-77.913V177.181h33.391v166.956h-33.391z"/>
    </symbol>
    <symbol id="icon-quotes" viewBox="0 0 18 32">
      <title>quotes</title>
      <path d="M1.109 8q0-0.906 0.469-2.008t1.219-2.047 1.781-1.586 2.031-0.641q0.563 0 0.898 0.258t0.336 0.586q0 0.266-0.438 0.711t-0.867 0.938-0.43 0.883q0 0.156 0.391 0.328t0.859 0.375 0.859 0.813 0.391 1.547q0 1.531-1.031 2.492t-2.703 0.961q-1.578 0-2.672-1.047t-1.094-2.563zM9.422 8q0-0.906 0.469-2.008t1.227-2.047 1.781-1.586 2.023-0.641q0.563 0 0.906 0.258t0.344 0.586q0 0.203-0.273 0.539t-0.602 0.633-0.602 0.672-0.273 0.688q0 0.156 0.398 0.328t0.859 0.375 0.852 0.813 0.391 1.547q0 1.531-1.023 2.492t-2.695 0.961q-1.578 0-2.68-1.047t-1.102-2.563z"></path>
    </symbol>
    <symbol id="icon-star-empty" viewBox="0 0 32 32">
      <title>star-empty</title>
      <path d="M32 12.408l-11.056-1.607-4.944-10.018-4.944 10.018-11.056 1.607 8 7.798-1.889 11.011 9.889-5.199 9.889 5.199-1.889-11.011 8-7.798zM16 23.547l-6.983 3.671 1.334-7.776-5.65-5.507 7.808-1.134 3.492-7.075 3.492 7.075 7.807 1.134-5.65 5.507 1.334 7.776-6.983-3.671z"></path>
    </symbol>
    <symbol id="icon-star-filled" viewBox="0 0 32 32">
      <title>star-filled</title>
      <path d="M32 12.408l-11.056-1.607-4.944-10.018-4.944 10.018-11.056 1.607 8 7.798-1.889 11.011 9.889-5.199 9.889 5.199-1.889-11.011 8-7.798z"></path>
    </symbol>
    <symbol id="icon-arrow-left" viewBox="0 0 32 32">
      <title>arrow-left</title>
      <path d="M23.038 27.469c0.429 0.434 0.429 1.133 0 1.566s-1.122 0.434-1.55 0l-12.528-12.651c-0.429-0.434-0.429-1.134 0-1.566l12.528-12.653c0.429-0.434 1.122-0.434 1.55 0s0.429 1.133 0 1.566l-11.424 11.869 11.424 11.869z"></path>
    </symbol>
    <symbol id="icon-arrow-right" viewBox="0 0 32 32">
      <title>arrow-right</title>
      <path d="M8.96 27.469c-0.429 0.434-0.429 1.133 0 1.566s1.122 0.434 1.55 0l12.528-12.651c0.429-0.434 0.429-1.134 0-1.566l-12.528-12.653c-0.429-0.434-1.122-0.434-1.55 0s-0.429 1.133 0 1.566l11.424 11.869-11.424 11.869z"></path>
    </symbol>
    <symbol id="icon-arrow-down" viewBox="0 0 32 32">
      <title>arrow-down</title>
      <path d="M4.131 8.562c-0.434-0.429-1.134-0.429-1.566 0-0.432 0.427-0.432 1.122 0 1.55l12.653 12.528c0.434 0.429 1.133 0.429 1.566 0l12.653-12.528c0.432-0.429 0.434-1.122 0-1.55s-1.136-0.429-1.566-0.002l-11.87 11.426-11.869-11.424z"></path>
    </symbol>
    <symbol id="icon-checked" viewBox="0 0 32 32">
      <title>checked</title>
      <path d="M0 0v32h32v-32h-32zM30 30h-28v-28h28v28zM24 7l-10 10-6-6-4 4 10 10 14-14-4-4z"></path>
    </symbol>
    <symbol id="icon-unchecked" viewBox="0 0 32 32">
      <title>unchecked</title>
      <path d="M0 0v32h32v-32h-32zM30 30h-28v-28h28v28z"></path>
    </symbol>
    <symbol id="icon-radio" viewBox="0 0 32 32">
      <title>radio</title>
      <path d="M16 0c-8.837 0-16 7.163-16 16s7.163 16 16 16 16-7.163 16-16-7.163-16-16-16zM16 28c-6.627 0-12-5.373-12-12s5.373-12 12-12c6.627 0 12 5.373 12 12s-5.373 12-12 12zM10 16c0-3.314 2.686-6 6-6s6 2.686 6 6c0 3.314-2.686 6-6 6s-6-2.686-6-6z"></path>
    </symbol>
    <symbol id="icon-unradio" viewBox="0 0 32 32">
      <title>unradio</title>
      <path d="M16 0c-8.837 0-16 7.163-16 16s7.163 16 16 16 16-7.163 16-16-7.163-16-16-16zM16 28c-6.627 0-12-5.373-12-12s5.373-12 12-12c6.627 0 12 5.373 12 12s-5.373 12-12 12z"></path>
    </symbol>
    <symbol id="icon-screen" viewBox="0 0 32 32">
      <title>screen</title>
      <path d="M32 26v-24h-32v24h14v2h-6v2h16v-2h-6v-2h14zM4 6h24v16h-24v-16z"></path>
    </symbol>
    <symbol id="icon-tablet" viewBox="0 0 32 32">
      <title>tablet</title>
      <path d="M25 0h-20c-1.65 0-3 1.35-3 3v26c0 1.65 1.35 3 3 3h20c1.65 0 3-1.35 3-3v-26c0-1.65-1.35-3-3-3zM15 31c-0.552 0-1-0.448-1-1s0.448-1 1-1 1 0.448 1 1-0.448 1-1 1zM24 28h-18v-24h18v24z"></path>
    </symbol>
    <symbol id="icon-mobile" viewBox="0 0 32 32">
      <title>mobile</title>
      <path d="M23 0h-14c-1.65 0-3 1.35-3 3v26c0 1.65 1.35 3 3 3h14c1.65 0 3-1.35 3-3v-26c0-1.65-1.35-3-3-3zM12 1.5h8v1h-8v-1zM16 30c-1.105 0-2-0.895-2-2s0.895-2 2-2 2 0.895 2 2-0.895 2-2 2zM24 24h-16v-20h16v20z"></path>
    </symbol>
    <symbol id="icon-cog" viewBox="0 0 32 32">
      <title>cog</title>
      <path d="M32 19.003v-6.006l-4.587-0.764c-0.186-0.567-0.413-1.115-0.678-1.641l2.702-3.782-4.247-4.247-3.776 2.697c-0.528-0.267-1.079-0.497-1.649-0.684l-0.763-4.575h-6.006l-0.763 4.575c-0.57 0.188-1.121 0.417-1.649 0.684l-3.776-2.697-4.247 4.247 2.702 3.782c-0.265 0.526-0.492 1.074-0.678 1.641l-4.587 0.764v6.006l4.597 0.766c0.186 0.561 0.413 1.105 0.676 1.626l-2.711 3.795 4.247 4.247 3.802-2.715c0.519 0.261 1.059 0.485 1.618 0.67l0.768 4.608h6.006l0.768-4.609c0.559-0.185 1.099-0.409 1.618-0.67l3.802 2.715 4.247-4.247-2.711-3.795c0.264-0.521 0.49-1.064 0.676-1.626l4.597-0.766zM16 20c-2.209 0-4-1.791-4-4s1.791-4 4-4c2.209 0 4 1.791 4 4s-1.791 4-4 4z"></path>
    </symbol>
    <symbol id="icon-item" viewBox="0 0 32 32">
      <title>item</title>
      <path d="M27 4l-15 15-7-7-5 5 12 12 20-20z"></path>
    </symbol>
    <symbol id="icon-html5" viewBox="0 0 32 32">
      <title>html5</title>
      <path d="M1.892 0l2.567 28.801 11.524 3.199 11.554-3.204 2.572-28.796h-28.216zM24.52 9.42h-13.517l0.322 3.617h12.874l-0.97 10.844-7.245 2.008-7.237-2.008-0.495-5.547h3.547l0.252 2.82 3.933 1.060 0.009-0.002 3.935-1.062 0.408-4.58h-12.242l-0.953-10.681h17.694l-0.316 3.532z"></path>
    </symbol>
    <symbol id="icon-css3" viewBox="0 0 32 32">
      <title>css3</title>
      <path d="M4.762 1.516l-1.074 5.373h21.867l-0.684 3.47h-21.881l-1.059 5.372h21.865l-1.219 6.127-8.813 2.919-7.638-2.919 0.523-2.658h-5.372l-1.278 6.448 12.632 4.834 14.563-4.834 4.805-24.133z"></path>
    </symbol>
    <symbol id="icon-effects" viewBox="0 0 35 32">
      <title>effects</title>
      <path d="M19.174 0l-9.086 2.93 19.689 6.376v12.561l-13.121 4.241-11.074-3.578v-12.311l10.706 3.461 9.086-2.931-19.718-6.391-5.655 1.841v20.396l16.655 5.39 18.717-6.052v-20.705z"></path>
    </symbol>
    <symbol id="icon-semantics" viewBox="0 0 32 32">
      <title>semantics</title>
      <path d="M16.004 0l-16.004 8.088v5.319l16.004-8.088 15.996 8.088v-5.319zM16.004 9.284l-16.004 8.088v5.319l16.004-8.088 15.996 8.088v-5.319zM16.004 18.57l-16.004 8.088v5.319l16.004-8.088 15.996 8.088v-5.319z"></path>
    </symbol>
    <symbol id="icon-world" viewBox="0 0 133 32">
      <title>world</title>
      <path d="M38.719 23.156q0 0.063 0.031 0.305t0.078 0.516 0.094 0.516 0.094 0.305q0 0.031 0.078 0.203t0.219 0.383 0.234 0.211h2.25q0-0.25-0.195-0.445t-0.438-0.367-0.414-0.367-0.109-0.445q0-0.031 0.078-0.195t0.172-0.359 0.18-0.352 0.117-0.188v-0.25q-0.031-0.063-0.133-0.273t-0.164-0.273q0.219-0.484 0.766-1.25t1.203-1.57 1.297-1.461 1.094-0.906q-0.156-0.219 0-0.445t0.445-0.469 0.563-0.484 0.367-0.492q0-0.031 0.031-0.188t0.078-0.352 0.094-0.367l0.047-0.188q0.188-0.219 0.547-0.313t0.727-0.156 0.703-0.195 0.492-0.414q0.094-0.125 0.305-0.492t0.43-0.805 0.336-0.898 0.023-0.82q0.219-0.25 0.508-0.602t0.547-0.734 0.43-0.805 0.172-0.828q0-0.703-0.688-1.156t-1.586-0.75-1.758-0.539-1.188-0.57q-0.391-0.391-0.484-0.914t-0.281-0.953-0.656-0.641-1.547 0.086q-0.484-0.766-1.188-1.219t-1.484-0.656-1.648-0.273-1.695-0.070q-0.672 0-1.219 0.289t-1.219 0.289q-0.359 0-0.805-0.477t-0.813-1.133-0.609-1.281-0.195-0.906q-0.063-0.031-0.273-0.055t-0.273-0.023q-0.281 0-0.477 0.148t-0.344 0.305-0.289 0.305-0.406 0.148q-0.25 0-0.422-0.242t-0.289-0.563-0.18-0.641-0.063-0.477q0-1.469 0.781-1.984t1.938-0.516h1.641q0.156 0 0.539 0.016t0.539 0.016q0 0.219 0.117 0.594t0.305 0.742 0.43 0.625 0.523 0.258q0.453 0 0.625-0.422t0.172-0.828v-0.141q-0.031-0.125-0.063-0.344t-0.078-0.445-0.078-0.391-0.031-0.195q-0.031-0.063-0.273-0.266t-0.273-0.266q-0.063-0.219 0.242-0.516t0.656-0.602 0.672-0.602 0.32-0.594v-0.125q0-0.063-0.094-0.273t-0.156-0.273q0.516-0.578 0.898-1.148t0.813-1.023 0.977-0.742 1.375-0.352q0.063-0.063 0.156-0.266t0.125-0.281v-0.156q0-0.25-0.141-0.461t-0.141-0.492q0-0.313 0.219-0.414t0.492-0.148 0.5-0.164 0.227-0.492l-0.375-0.547q-0.359-0.547-0.828-1.188t-0.898-1.164-0.555-0.523q-0.031 0-0.078 0.016l-0.047 0.016q-0.063 0.031-0.18 0.141t-0.242 0.242-0.25 0.258-0.156 0.188q-0.094-0.156-0.289-0.539t-0.258-0.555q0-0.031 0.031-0.234t0.031-0.234q0.641 0 0.992-0.18t0.352-1.008q0-0.313-0.133-0.477t-0.273-0.289-0.266-0.273-0.125-0.461q0.156 0 0.43 0.063t0.523 0.063 0.445-0.109 0.195-0.531-0.32-0.578-0.703-0.273-0.734-0.227-0.445-0.422v-0.813q-0.156-0.281-0.5-0.492t-0.742-0.32-0.797-0.156-0.68-0.047v-1.344q-0.859 0-1.117-0.258t-0.273-0.547-0.055-0.508-0.445-0.125q0.156-0.188 0.188-0.398l0.063-0.422t0.078-0.414 0.219-0.406q0 0.094 0.094 0.414t0.156 0.398l0.047 0.016q0.047 0.016 0.078 0.016 0.313 0 0.539-0.227t0.391-0.516 0.289-0.563 0.281-0.367q0.125-0.094 0.383-0.156t0.516-0.109 0.445-0.047q0.219 0 0.297 0.063l0.281 0.25q-0.125 0.031-0.398 0.094t-0.539 0.195-0.477 0.32-0.211 0.484q0 0.453 0.672 0.766t1.516 0.523 1.648 0.289 1.055 0.047q0.281 0.516 0.625 1.141t0.633 1.297 0.477 1.328 0.188 1.234q0 0.516-0.156 0.93t-0.156 0.883q0 0.578 0.281 1.141t0.734 0.992 1.031 0.688 1.109 0.258q0.156 0 0.398-0.031t0.273-0.063l1.891-2.984q0.219-0.031 0.992-0.43t1.602-0.875 1.531-0.898 0.781-0.516q-0.156-0.25-0.289-0.328t-0.227-0.125-0.141-0.148-0.047-0.414q0.063 0 0.25 0.078t0.383 0.109 0.32-0.063 0.031-0.484q0-0.125-0.242-0.43t-0.305-0.367q0.453-0.156 0.711-0.508t0.445-0.789 0.336-0.898 0.398-0.805l0.016-0.063q0.016-0.047 0.016-0.078 0-0.25-0.156-0.328t-0.156-0.344q0-0.484 0.383-0.719t0.859-0.398 0.859-0.352 0.383-0.578q0-0.031-0.016-0.078l-0.016-0.047q0-0.063-0.109-0.172t-0.141-0.109h-2.656q0-0.031-0.047-0.148t-0.016-0.117l0.547-0.547 0.016-0.063q0.016-0.063 0.016-0.094 0-0.422-0.5-0.656t-1.141-0.367-1.211-0.164-0.742-0.031q-0.281 0-1.016-0.016t-1.555-0.031-1.555-0.031-1.016-0.016v0.578q-0.031 0-0.148 0.047t-0.148 0.016q-0.063-0.031-0.273-0.109t-0.273-0.141v0.25q0 0.25 0.047 0.414t0.25 0.414h-0.125q-0.219 0-0.367-0.094l-0.297-0.188t-0.32-0.188-0.438-0.094q-0.281 0-0.391 0.125t-0.18 0.281-0.195 0.289-0.406 0.133q-0.063 0-0.18-0.094t-0.117-0.172l-4.344-0.531-0.266-0.297h-5.172q-0.766 0.453-1.555 0.594t-1.461 0.367-1.117 0.703-0.477 1.602l-0.547-0.25q0.063-0.063 0.156-0.273t0.094-0.273q0-0.25-0.188-0.289t-0.359-0.039q-0.219 0-0.523 0.070t-0.305 0.383q0 0.25 0.32 0.672t0.641 0.883 0.516 0.875-0.102 0.711l-0.25 0.25q-0.25-0.453-0.43-0.977t-0.422-0.969-0.609-0.75-1.008-0.305q-0.219 0-0.523 0.063t-0.305 0.344 0.172 0.539 0.43 0.453 0.547 0.336 0.508 0.188q-0.453 0.359-0.531 0.828-0.063 0.125-0.078 0.391l-0.031 0.281h1.547l0.141 0.156q0.141 0.156 0.047 0.25-0.156 0.094-0.43 0.195t-0.563 0.211-0.5 0.273-0.211 0.414q0 0.188 0.117 0.289t0.273 0.18 0.289 0.203 0.195 0.422h1.625q0.063 0.797-0.578 1.164t-1.25 0.367q0-0.703-0.031-0.93t-0.141-0.305-0.352-0.188-0.617-0.656l-0.297-0.297q-0.609-0.281-1.195-0.461t-1.18-0.32-1.219-0.336-1.297-0.508h-0.25q-0.063 0-0.305 0.031t-0.516 0.078-0.516 0.094-0.305 0.078q-0.391 0.641-0.641 1.188t-0.602 0.945-0.898 0.641-1.5 0.242q-0.188 0-0.766-0.016t-1.188-0.125-1.078-0.336-0.391-0.648q-0.094 0-0.352-0.016t-0.32-0.016q-0.156 0-0.414 0.016t-0.305 0.016q-0.063 0-0.266 0.148t-0.266 0.148q-0.578 0-1.141-0.289t-1.172-0.289q-0.359 0-1.008 0.156t-1.305 0.43-1.156 0.609-0.5 0.727 0.227 0.625 0.602 0.453q-0.422-0.063-0.477 0.18t-0.055 0.492q0 0.313 0.141 0.656t0.563 0.344l0.125-0.031q0.063-0.031 0.156-0.117t0.094-0.148l0.297 0.266q-0.516 0.516-0.695 0.93t-0.18 0.992q0 0.734 0.609 1.305t1.344 0.57q-0.156 0.484-0.602 0.727t-0.945 0.43-0.914 0.43-0.539 0.727h-2.563l0.031 0.266q0.031 0.281 0.094 0.438 0.094 0.156 0.266 0.25h0.156q1.375 0 2.508-0.641t2.242-1.406 2.273-1.406 2.57-0.641q0.391 0 1.031 0.18t1.266 0.398 1.094 0.391l0.453 0.156 1.375 1.344q0.063 0.063 0.211 0.242t0.32 0.352 0.32 0.313 0.242 0.188q0.281 0.094 0.617 0.188t0.625 0.266 0.484 0.445 0.195 0.727q0 0.359-0.133 0.711t-0.289 0.703-0.289 0.672-0.133 0.633q0 0.766 0.133 1.297t0.383 0.93 0.586 0.766 0.789 0.82q0.422 0.422 0.789 0.992t0.766 1.148 0.883 1.039 1.109 0.617q0.063 0 0.273-0.016t0.273 0.016q0.281 0.188 0.477 0.43t0.375 0.516 0.352 0.531 0.438 0.445q0.094 0.063 0.398 0.258t0.656 0.406 0.672 0.398 0.445 0.281q0.281 0.156 0.859 0.414t1.281 0.563 1.461 0.641 1.391 0.672 1.055 0.672 0.484 0.602q0.031 0.391-0.133 0.93t-0.383 1.148-0.414 1.234-0.195 1.125q0 0.219 0.32 0.867t0.75 1.383 0.836 1.391 0.563 0.875q0.156 0.25 0.383 0.367t0.445 0.227 0.43 0.289 0.367 0.492q0.25 0.453 0.289 1.219t0.039 1.5v0.672q0 1.531-0.211 2.914t-0.211 2.945h0.328q0 0.453-0.117 0.883t-0.117 0.914v0.094q0.063 0.063 0.273 0.156t0.273 0.125zM124.125 21.531q-0.281-0.25-0.719 0.102t-0.836 0.922-0.688 1.18-0.289 0.906q0.453 0 1.219-0.578t1.492-1.328 1.25-1.477 0.523-0.977q0-0.063-0.016-0.094l-0.016-0.031q-0.063-0.063-0.414-0.125t-0.414-0.141q-0.281-0.281-0.477-0.586t-0.391-0.563-0.43-0.414-0.656-0.156q0 0.359 0.047 0.82t0.156 0.938 0.273 0.898 0.383 0.703zM113.953 21.469q0 0.219 0.047 0.555t0.141 0.656 0.273 0.563 0.461 0.242q0.422 0 0.758-0.43t0.336-0.852q0-0.281-0.242-0.43t-0.563-0.211-0.672-0.078-0.539-0.016zM111.609 19.359l1.375 1.344h2.984q0.031-0.063 0.273-0.531t0.578-1.141l0.523-1.047q0.156-0.391 0.219-0.602t0.063-0.461v-0.453q0-1.031-0.32-1.797t-1.055-1.594q-0.359 0.313-0.734-0.242t-0.727-1.352-0.641-1.523-0.492-0.727q-0.031 0-0.063 0.023t-0.063 0.023q-0.641 0.984-0.828 2.172-0.25-0.031-0.266-0.258t0.016-0.469 0-0.43-0.297-0.188h-2.422l-0.844 1.078q0-0.063-0.094-0.156t-0.156-0.125l-0.125-0.031q-0.188 0-0.75 0.383t-1.313 0.883-1.602 0.945-1.648 0.539q-0.25 0.25-0.273 0.586t-0.023 0.664q0 0.672 0.258 1.203t0.563 1.023 0.563 1.039 0.258 1.219h0.156q0.188 0 0.688-0.117t1.023-0.273 0.93-0.352 0.469-0.352q0.156-0.031 0.539-0.063t0.539-0.031q0.516 0 0.914 0.242t0.734 0.492 0.609 0.414 0.461 0.039zM66.75 12.281q0.422 0.578 0.563 1.25t0.219 1.344 0.164 1.281 0.375 1.070 0.859 0.75 1.633 0.289h1.344q0.156-0.547 0.414-0.734t0.547-0.367 0.609-0.5 0.602-1.117q0.094-0.25 0.273-0.461t0.352-0.438 0.32-0.43 0.148-0.469v-0.125q0-0.031-0.047-0.188t-0.102-0.336-0.086-0.336-0.031-0.234q0.031-0.359 0.438-0.609t0.852-0.539 0.813-0.672 0.367-1.023-0.289-1.195-0.289-1.273q0-0.828 0.656-1.563t1.461-1.516 1.461-1.695 0.656-2.133h-2.063q0.359-0.125 1.258-0.641t1.789-1.156 1.563-1.273 0.578-1.023q0-0.063-0.234-0.273t-0.313-0.273q-0.031-0.063 0.023-0.188t0.055-0.188q0.031 0 0.219 0.047t0.398 0.078 0.398-0.031 0.25-0.266h2.469q0.031 0 0.109 0.117t0.156 0.18q0.031 0.031 0.188 0.219t0.352 0.461 0.352 0.531 0.188 0.414q0.031 0.094 0.063 0.414t0.078 0.672 0.086 0.672 0.070 0.414q0 0.031 0.078 0.148t0.188 0.242 0.188 0.258 0.078 0.164q0.031 0.094 0.102 0.336t0.164 0.492 0.172 0.477 0.109 0.32q0.031 0 0.117 0.016t0.148 0.016q0.453 0 0.703-0.398t0.492-0.945 0.516-1.086 0.742-0.867q0.063-0.063 0.398-0.125t0.398-0.125q0.219-0.188 0.336-0.383t0.234-0.375 0.289-0.289 0.563-0.109q0.641 0 1.242 0.766t1.086 1.773 0.789 2.016 0.367 1.492h-0.266q-0.359 0-0.477-0.172t-0.508-0.172q0 0.859 0.531 1.758t1.344 1.617 1.773 1.18 1.82 0.461q0.094 0 0.477-0.031t0.492-0.031q-0.281-0.453-0.883-0.672t-1.188-0.461-1.039-0.609-0.453-1.102v-0.125l0.297-0.297v-0.125q0-0.391-0.195-0.805t-0.469-0.813-0.539-0.719-0.438-0.508v-0.844q0.422 0.25 0.609 0.414t0.305 0.328 0.258 0.367 0.469 0.531l0.047 0.016q0.047 0.016 0.078 0.016t0.078-0.016l0.047-0.016q0.063-0.031 0.367-0.336t0.625-0.672 0.531-0.703 0.117-0.461l-1.344-1.641-0.031-0.031q-0.016-0.031-0.016-0.094 0-0.031 0.016-0.078l0.031-0.047q0.031-0.125 0.125-0.32t0.188-0.367 0.156-0.297l0.063-0.109h0.422v1.156h0.125q0.156 0 0.266-0.063l0.281-0.297q0.031-0.063 0.109-0.281t0.141-0.25q0.516-0.313 1.266-0.578t1.438-0.633 1.172-0.945 0.484-1.531q0-0.453-0.148-0.82t-0.148-0.836q0-0.359 0.164-0.617t0.164-0.602q0-0.188-0.094-0.258t-0.195-0.102-0.195-0.078-0.094-0.203v-0.125q0.063-0.031 0.367-0.133t0.461-0.164h0.141q0.313 0 0.422 0.258t0.195 0.578 0.227 0.578 0.563 0.258q0.672 0 0.797-0.352t0.172-0.836 0.258-0.992 1.039-0.836q0.094-0.063 0.414-0.273t0.383-0.273q0.484-0.484 0.93-1.281t0.711-1.438q0 0.063 0.016 0.195t0.016 0.195q0 0.313-0.133 0.57t-0.289 0.453-0.289 0.367-0.133 0.328q0 0.313 0.102 0.688t0.211 0.758 0.188 0.719 0.047 0.633q-0.063 0.453-0.32 0.75t-0.578 0.555-0.555 0.531-0.234 0.68q0 0.359 0.172 0.695t0.563 0.336q0.031 0 0.078-0.016l0.047-0.016q0.063-0.063 0.156-0.273t0.125-0.273q0.094-0.094 0.32-0.336t0.484-0.5 0.5-0.477 0.336-0.313q0.031-0.063 0.047-0.383t0.016-0.43q0-0.703-0.141-1.164t-0.75-1.008q0.578-0.828 0.828-1.547t0.25-1.75q0-0.547-0.188-0.977t-0.188-1.133q-0.094 0-0.352-0.016t-0.531-0.063-0.469-0.125-0.195-0.25q0-0.031 0.016-0.078l0.016-0.047 1.359-1.375h2.719q0.391-0.281 0.625-0.43t0.477-0.211 0.508-0.078 0.719-0.016q0 0.281-0.063 0.508t-0.156 0.438-0.164 0.43-0.070 0.516q0 0.156 0.016 0.43t0.016 0.336q0.031 0.188 0.070 0.461t0.086 0.531 0.078 0.445l0.031 0.188h0.828q0.031 0 0.211-0.141t0.398-0.367 0.43-0.461 0.305-0.406q0.188-0.281 0.289-0.664t0.195-0.734 0.289-0.641 0.602-0.383q0.063-0.031 0.43-0.117t0.789-0.164 0.789-0.156 0.43-0.109q0.516-0.156 0.914-0.578t0.719-0.852 0.641-0.75 0.695-0.32q0.453 0 0.789 0.164t0.758 0.164q0.094 0 0.352-0.18t0.523-0.406 0.461-0.461 0.195-0.328q0-0.641-0.516-0.977t-1.219-0.547-1.391-0.391-1-0.523q-0.578 0-1.281-0.063t-1.422-0.148-1.445-0.18-1.289-0.156q-0.922-0.125-1.727-0.445t-1.609-0.656-1.648-0.594-1.844-0.258q-1.063 0-2.148 0.289t-2.039 0.289h-0.156q-0.156-0.156-0.398-0.539t-0.398-0.555q-0.031-0.063-0.133-0.156t-0.164-0.094q-0.125 0-0.477-0.031t-0.75-0.078-0.734-0.094-0.461-0.078q-0.156-0.031-0.531-0.086t-0.758-0.148-0.719-0.219-0.461-0.359q-0.219-0.422-0.258-0.781t-0.539-0.594l-2.469-0.797q-0.25-0.125-0.609-0.609t-0.758-1.008-0.844-0.953-0.898-0.43q-0.422 0-0.836 0.172t-0.414 0.656h1.375q-0.094 0-0.281 0.094t-0.25 0.156l-0.016 0.047t-0.016 0.078q0 0.063 0.219 0.305t0.492 0.516 0.516 0.5 0.273 0.227q0.063 0 0.109-0.016l0.047-0.016 0.547-0.266h0.25q-0.453 0.703-1.117 1.039t-1.469 0.516-1.617 0.289-1.516 0.352-1.219 0.734-0.672 1.43q-0.063-0.25-0.273-0.289t-0.367-0.039q-0.063 0-0.242 0.016t-0.211 0.016q-0.063 0-0.398 0.148t-0.398 0.148q-0.313-0.063-0.523-0.211t-0.406-0.289-0.43-0.25-0.563-0.109q-0.578 0-0.781 0.188t-0.32 0.445-0.242 0.547-0.547 0.477q-0.063 0.031-0.266-0.047t-0.461-0.188-0.484-0.211-0.289-0.102h-0.125q-0.094 0.063-0.211 0.164t-0.273 0.32q-0.156 0.25-0.352 0.508t-0.258 0.383q-0.063-0.219-0.281-0.281-0.094-0.031-0.336-0.078t-0.5-0.078-0.477-0.070-0.328-0.039q-0.125 0-0.617 0.102t-0.727 0.164l-0.531 0.281h-0.141q-0.313 0-0.539-0.156t-0.539-0.156q-0.063 0-0.211 0.016t-0.211 0.016q-0.063 0.797-0.672 1.359t-1.375 0.563h-0.125q-0.219-0.063-0.297-0.297 0.422-0.063 0.773-0.203t0.352-0.594q0-0.703-0.609-1.102t-1.422-0.594-1.617-0.227-1.211-0.031q-0.547 0-1.125 0.016t-1.117 0.164-1.039 0.438-0.844 0.789q-0.125 0.188-0.352 0.656t-0.516 0.93-0.625 0.75-0.695 0.102q-0.063 0.063-0.234 0.242t-0.352 0.398-0.32 0.43-0.172 0.305l-0.016 0.203q-0.016 0.219-0.016 0.375 0 0.547 0.063 0.914t0.188 0.656 0.336 0.539 0.523 0.578v0.094q0 0.422-0.063 0.609t-0.188 0.289-0.336 0.164-0.492 0.188q-0.313 0.156-0.641 0.477t-0.664 0.641-0.688 0.563-0.695 0.242q-0.25 0-0.43-0.078t-0.18-0.344q0-0.031 0.016-0.078l0.016-0.047q1.375 0.094 1.375-1.094 0-0.188-0.211-0.648t-0.5-0.93-0.594-0.82-0.492-0.352q-0.281 0-0.43 0.211t-0.227 0.5-0.125 0.563-0.172 0.398q-0.25 0.25-0.492 0.359t-0.469 0.273-0.352 0.469-0.125 0.914q0.313 0 0.664-0.086t0.641-0.258 0.484-0.445 0.195-0.68q0.125 0.828 0.219 1.82t0.609 1.695q0.063 0.063 0.156 0.289t0.094 0.258q0 0.641-0.203 0.844t-0.563 0.203q-0.313 0-0.703-0.094t-0.727-0.016-0.555 0.43-0.219 1.258v0.094q0.031 0.063 0.203 0.266t0.383 0.461 0.367 0.484 0.156 0.289q0 0.359-0.25 0.773t-0.586 0.797-0.656 0.719-0.461 0.555q-0.031 0.031-0.063 0.195t-0.063 0.352-0.063 0.352-0.063 0.195q-0.391 0.766-0.773 0.977t-0.703 0.445-0.523 0.828-0.203 2.125q0 1.438 0.93 2.656t2.242 1.859q0.891 0.484 1.734 0.641t1.594 0.156q0.547 0 1.039 0.031t0.922 0.211 0.828 0.531 0.789 0.961q0.094 0.156 0.219 0.43t0.273 0.531 0.242 0.445 0.094 0.219v5.734zM78.172 12.406v0.125q0 0.031 0.016 0.305t0.086 0.578 0.195 0.547 0.375 0.242q0.547 0 0.898-0.516t0.547-1.203 0.273-1.375 0.078-1q0-0.422-0.078-0.648t-0.5-0.227q-0.281 0-0.367 0.18t-0.148 0.359-0.203 0.242-0.625-0.203q-0.031 0.125-0.109 0.484t-0.172 0.742-0.164 0.75-0.102 0.492v0.125zM110.234 6.016q0 0.766 0.688 1.391t1.648 1.039 1.953 0.641 1.602 0.227q0.156 0 0.383-0.016t0.289-0.281q-0.219-0.422-0.734-0.93t-1.117-0.969-1.211-0.781-1.031-0.32q-0.063 0-0.273 0.125t-0.273 0.156h-0.25q-0.391 0-0.82-0.227t-0.82-0.32l-0.016 0.094q-0.016 0.109-0.016 0.172zM101.828 5.047q0 0.922 0.656 1.359t1.391 0.438h0.406q0.25-0.516 0.672-1.281t0.422-1.438q0-0.25-0.047-0.563t-0.375-0.313q-0.094 0-0.586 0.258t-1.055 0.594-1.023 0.625-0.461 0.32zM105.891 5.344q0 0.031 0.016 0.078l0.016 0.047q0.031 0.094 0.156 0.219t0.258 0.273 0.242 0.242 0.141 0.094q0.281 0.094 0.383-0.094t0.18-0.492 0.172-0.625 0.359-0.414q-0.063-0.25-0.211-0.289t-0.336-0.039q-0.156 0-0.398 0.078t-0.453 0.211-0.367 0.328-0.156 0.383zM99.391 4.125q0.219 0 0.219 0.25 0 0.281-0.219 0.297-0.219 0-0.219-0.297 0-0.25 0.219-0.25zM99.109 3.828q0.219 0 0.219 0.297 0 0.25-0.219 0.25-0.188 0-0.203-0.25 0.016-0.297 0.203-0.297zM106.719 2.453q0 0.156 0.031 0.32t0.266 0.258h-0.297q0.063-0.063 0.273-0.172t0.273-0.109 0.273 0.141 0.273 0.141q0.453 0 0.531-0.188t0.078-0.516q0-0.672-0.734-0.672h-0.141q-0.484 0.25-0.656 0.328t-0.172 0.469zM105.797-1.984q0 0.453 0.078 0.992t0.305 1.016 0.578 0.797 0.93 0.32q0.031 0 0.078-0.016l0.047-0.016q0.063-0.031 0.156-0.109t0.125-0.141q-0.484-0.313-0.656-0.656t-0.188-0.664 0.016-0.602-0.063-0.492-0.398-0.32-1.008-0.109zM75.719-4.328v-0.547q0.281 0.578 0.773 1.125t0.992 1.086 0.867 1.148 0.367 1.281v0.266q-0.391-0.281-0.914-0.813t-0.984-1.141-0.781-1.25-0.32-1.156zM36.547-3.781q-0.156 0.359 0.094 0.742t0.609 0.383l0.125-0.031 0.25-0.266 0.063-0.016q0.078-0.016 0.109-0.016l0.125 0.031q0.063 0 0.156 0.094t0.094 0.172h2.688q0-0.484-0.445-0.711t-1.055-0.367-1.188-0.305-0.797-0.508h-2.234q0 0.25 0.156 0.414t0.398 0.227 0.469 0.094 0.383 0.063zM5.531-5q0 0.219 0.258 0.398t0.594 0.32 0.656 0.211 0.414 0.039q0.313-0.063 0.445-0.32t0.133-0.523q0-0.063-0.016-0.156l-0.016-0.094q-0.156 0-0.445-0.031t-0.609-0.094-0.625-0.164-0.492-0.258q-0.063 0.063-0.164 0.273t-0.133 0.273v0.125zM24.031-7.047q0.156 0.063 0.156 0.125 0 0.094-0.141 0.148t-0.141-0.148q0-0.188 0.125-0.125zM23.781-7.594q0.219 0 0.219 0.297 0 0.25-0.219 0.25t-0.234-0.25q0.016-0.297 0.234-0.297zM114.344-13.031q0 0.125-0.266 0.125-0.25 0-0.281-0.125 0-0.063 0.094-0.078t0.188-0.016 0.195 0.016 0.070 0.078zM31.109-20.781q0-0.922 0.477-1.547t1.055-1.203 1.055-1.211 0.477-1.602h2.375q0.156 0 0.266 0.164t0.18 0.383 0.086 0.445 0.016 0.352v0.297q-0.156-0.063-0.563 0.047t-0.531 0.203v0.344q0 0.516 0.273 0.695t0.656 0.258 0.813 0.188 0.727 0.438h-2.469q-0.156 0-0.32 0.641t-0.273 1.453-0.188 1.563-0.016 0.953q-0.313-0.484-0.992-0.836t-1.367-0.688-1.211-0.641-0.523-0.695zM40.641-19.813q0.219 0 0.219 0.25 0 0.281-0.219 0.297-0.219 0-0.219-0.297 0-0.25 0.219-0.25zM39.266-22.281q0.219 0 0.219 0.297 0 0.25-0.219 0.25-0.188 0-0.188-0.25 0-0.297 0.188-0.297zM38.719-22.531q0.219 0 0.219 0.25 0 0.281-0.219 0.297-0.188 0-0.188-0.297 0-0.25 0.188-0.25zM54.781-24.172q0.125 0.453 0.289 0.68t0.352 0.32 0.445 0.109 0.617 0.016h0.5q0.453 0 0.906-0.195t0.453-0.633q0-0.25-0.18-0.688t-0.539-0.438q-0.313 0-0.523 0.148t-0.555 0.148q-0.391 0-0.648-0.164t-0.602-0.164q-0.313 0-0.492 0.156t-0.023 0.703zM32.188-23.906q0.219 0 0.234 0.281 0 0.25-0.234 0.266-0.188 0-0.188-0.266 0-0.281 0.188-0.281zM30.563-28.266q0-0.031 0.125-0.141t0.273-0.258 0.273-0.258 0.156-0.141q0-0.031 0.016-0.125t0.016-0.156-0.016-0.156l-0.016-0.109q-0.094 0-0.32-0.031t-0.5-0.078-0.492-0.094-0.313-0.078q-0.063-0.031-0.164-0.117t-0.133-0.148q0.25-0.094 0.305-0.398t0.055-0.492q0.313 0 0.57 0.141t0.531 0.305 0.641 0.305 0.914 0.141q-0.094 0.25-0.227 0.461t-0.273 0.406-0.242 0.422-0.102 0.508 0.133 0.477 0.305 0.391 0.305 0.383 0.133 0.484q0 0.063-0.016 0.156t-0.016 0.125q-0.125-0.156-0.461-0.367t-0.672-0.445-0.594-0.516-0.195-0.594zM29.766-27.172q0.219 0 0.219 0.281 0 0.25-0.219 0.266-0.219 0-0.234-0.266 0.016-0.281 0.234-0.281zM20.766-27.438q0.063-0.094 0.273-0.281t0.273-0.25l0.047-0.016q0.047-0.016 0.109-0.016l0.125 0.031q0.063 0 0.273 0.109t0.273 0.141l0.016 0.031q0.016 0.031 0.016 0.094 0 0.313-0.234 0.383t-0.469 0.070q-0.188 0-0.414-0.023t-0.289-0.273zM19.422-27.969q0.125 0 0.125 0.125 0 0.094-0.125 0.125t-0.125-0.125 0.125-0.125zM82.781-28.781q0 0.25 0.063 0.383t0.484 0.133 0.609-0.094 0.266-0.258 0.117-0.414 0.102-0.578q0.188-0.672 0.828-0.992t1.328-0.539 1.234-0.477 0.547-0.805q-0.922 0-1.922 0.141t-1.813 0.547-1.328 1.102-0.516 1.852zM21.594-29.344q0.219 0 0.234 0.281 0 0.25-0.234 0.25-0.219 0-0.219-0.25 0-0.281 0.219-0.281zM34.906-29.344q0.219 0 0.234 0.281 0 0.25-0.234 0.25-0.188 0-0.188-0.25 0-0.281 0.188-0.281zM29.219-29.609q0.219 0 0.219 0.266 0 0.281-0.219 0.281t-0.234-0.281q0.016-0.266 0.234-0.266zM33.531-30.016q0-0.031 0.016-0.078l0.016-0.063 1.344 0.266q0.063 0.094-0.047 0.305t-0.203 0.242-0.289-0.023-0.367-0.148-0.32-0.219-0.148-0.281zM22.109-30.859q0 0.359 0.336 0.5t0.766 0.188 0.836 0.031 0.531-0.016h1.375q0.25-0.188 0.414-0.508t0.164-0.602q0-0.219-0.031-0.273t-0.133-0.070-0.258-0.031-0.453-0.141q-0.453-0.25-0.594-0.586t-0.188-0.641-0.141-0.516-0.453-0.211q-0.25 0-0.375 0.211t-0.211 0.492-0.133 0.555-0.078 0.414q-0.125-0.063-0.25 0-0.063 0.063-0.227 0.203t-0.336 0.32-0.336 0.336-0.195 0.219l-0.016 0.047q-0.016 0.047-0.016 0.078zM19.391-31.391q0 0.031 0.016 0.094l0.016 0.063q0.094 0.156 0.266 0.25h0.281q0.094 0 0.367-0.031t0.594-0.078 0.594-0.078 0.336-0.063q0.031-0.063 0.047-0.273t0.016-0.273q0-0.484-0.211-0.672t-0.68-0.188q-0.188 0-0.469 0.109t-0.531 0.305-0.445 0.422-0.195 0.414zM33.281-31.234q-0.125 0.125-0.547 0.125-0.359 0-0.547-0.125-0.063-0.063 0.117-0.094t0.43-0.031 0.43 0.031 0.117 0.094zM31.391-31.781q0.219 0 0.219 0.25 0 0.281-0.219 0.297-0.219 0-0.219-0.297 0-0.25 0.219-0.25zM24.313-31.781q-0.063 0.125-0.125 0.125-0.094 0-0.141-0.141t0.141-0.141 0.125 0.156zM30.297-32.328q0.359-0.156 0.711-0.398t0.719-0.484 0.75-0.398 0.773-0.156q0 0.25-0.273 0.523t-0.641 0.531-0.719 0.5-0.508 0.43q-0.219-0.094-0.438-0.211t-0.375-0.336zM30.297-33.422q0.219 0 0.234 0.266 0 0.281-0.234 0.281-0.219 0-0.219-0.281 0-0.266 0.219-0.266zM30.016-33.703q0.219 0 0.219 0.281 0 0.25-0.219 0.266-0.188 0-0.188-0.266 0-0.281 0.188-0.281zM99.391-33.703q0.219 0 0.219 0.281 0 0.25-0.219 0.266-0.219 0-0.219-0.266 0-0.281 0.219-0.281zM32.734-35.875h0.547q-0.094 0.359-0.227 0.703t-0.32 0.672v-1.375zM39.547-34.797q0.219 0 0.234 0.297 0 0.25-0.234 0.25-0.219 0-0.219-0.25 0-0.297 0.219-0.297zM40.641-35.328q0.219 0 0.219 0.281 0 0.25-0.219 0.25t-0.219-0.25q0-0.281 0.219-0.281zM31.109-35.594q0.219 0 0.219 0.266 0 0.281-0.219 0.281-0.188 0-0.203-0.281 0.016-0.266 0.203-0.266zM41.438-35.875h0.297l-0.297 0.281v-0.281z"></path>
    </symbol>
    <!-- colored icons -->
    <symbol id="icon-recent" viewBox="0 0 100 100">
      <title>recent</title>
      <path fill="#324D5B" d="M50 0c27.614 0 50 22.386 50 50s-22.386 50-50 50-50-22.386-50-50 22.386-50 50-50z"/><path fill="#475F6C" d="M95.161 71.476c-11.992-5.28-27.591-8.476-44.661-8.476-17.461 0-33.391 3.341-45.488 8.837 8.107 16.671 25.204 28.163 44.988 28.163 19.927 0 37.126-11.658 45.161-28.524z"/><path fill="#ccc" d="M70.911 66.767l-17.366-9.951 9.45-5.816-12.995-7.996-12.995 7.996 9.813 6.039-16.975 9.728c-.958.549-.958 1.919 0 2.468l20.534 11.765 20.534-11.766c.957-.548.957-1.919 0-2.467zm-29.845-15.767l8.934-5.331 8.934 5.331-8.934 5.331-8.934-5.331zm9.311 26.75l-17.285-9.75 16.455-9.282.453.279.813-.501 16.85 9.504-17.286 9.75z"/><path fill="#F2F1EF" d="M75.732 75.971l-23-48.96c-.218-.38-.541-.658-.909-.826-.312-.697-1.01-1.185-1.823-1.185-.684 0-1.286.344-1.647.868-.441.151-.834.448-1.085.884l-23 48.497c-.552.956-.225 2.18.732 2.731.957.553 2.18.225 2.732-.731l20.268-42.735v48.486c0 1.104.896 2 2 2s2-.896 2-2v-48.153l20.268 43.143c.553.966 1.775 1.297 2.732.739s1.284-1.793.732-2.758z"/><path fill="#EFC75E" d="M50 18c2.762 0 5 2.239 5 5 0 2.762-2.238 5-5 5s-5-2.238-5-5c0-2.761 2.238-5 5-5z"/><g fill="#315F73"><path d="M30.13 54.979l.857-1.826c-9.629-6.35-15.987-17.256-15.987-29.653 0-3.75.585-7.362 1.663-10.755-.965.865-1.892 1.771-2.788 2.707-.567 2.593-.875 5.284-.875 8.048 0 13.198 6.824 24.795 17.13 31.479zM60.951 35.993l.875 1.862c4.367-3.481 7.174-8.836 7.174-14.855 0-10.493-8.507-19-19-19s-19 8.507-19 19c0 6.019 2.807 11.374 7.174 14.855l.875-1.862c-3.696-3.119-6.049-7.779-6.049-12.993 0-9.389 7.611-17 17-17s17 7.611 17 17c0 5.214-2.353 9.874-6.049 12.993zM76 23c0 8.829-4.41 16.617-11.138 21.316l.868 1.848c7.406-5.037 12.27-13.532 12.27-23.164 0-6.993-2.569-13.382-6.809-18.289-1.599-.749-3.245-1.412-4.931-1.992 5.936 4.765 9.74 12.077 9.74 20.281zM34.27 46.164l.869-1.848c-6.728-4.699-11.139-12.487-11.139-21.316 0-8.204 3.804-15.516 9.739-20.281-1.686.58-3.332 1.243-4.931 1.992-4.239 4.907-6.808 11.296-6.808 18.289 0 9.632 4.865 18.127 12.27 23.164zM87.396 16.825c-.857-.966-1.753-1.896-2.683-2.793.833 3.016 1.287 6.188 1.287 9.468 0 12.724-6.698 23.878-16.756 30.146l.857 1.825c10.737-6.597 17.899-18.446 17.899-31.971 0-2.279-.215-4.507-.604-6.675zM50 14c4.971 0 9 4.029 9 9 0 1.957-.631 3.762-1.691 5.238l.947 2.015c1.703-1.937 2.744-4.471 2.744-7.253 0-6.075-4.925-11-11-11s-11 4.925-11 11c0 2.782 1.041 5.316 2.745 7.253l.946-2.015c-1.06-1.476-1.691-3.281-1.691-5.238 0-4.971 4.029-9 9-9z"/></g><path fill="#D7B354" d="M51 26c-2.762 0-5-2.238-5-5 0-.397.058-.778.146-1.149-.706.862-1.146 1.949-1.146 3.149 0 2.762 2.238 5 5 5 2.364 0 4.334-1.646 4.854-3.851-.916 1.121-2.292 1.851-3.854 1.851z"/>
    </symbol>
    <symbol id="icon-categories" viewBox="0 0 100 100">
      <title>categories</title>
      <path fill="#EDEDED" d="M49.986 0c-27.614 0-50 22.386-50 50s22.386 50 50 50 50-22.386 50-50-22.385-50-50-50z"/><path fill="#EFC75E" d="M19.985 35l30.001-14.986 30.001 14.986-.017 1.981-29.984 15.004-29.989-14.98-.012-2.005z"/><path fill="#E7BF55" d="M19.986 35l29.977 14.999 30.023-14.999v30l-30.109 15-29.891-15v-30z"/><path fill="#DBB551" d="M49.986 79.945v-29.958l-.023.012-29.977-14.999v30l29.891 15z"/><path fill="#F1D999" d="M61.99 43.991v8.792l2.678.216 1.707-2.033 1.607.253v-10.222z"/><path fill="#F7E3AF" d="M31.967 29.015l30.51 15.279 5.502-3.26-30-15.023z"/><path fill="#F2F2F2" d="M43.979 63.122l-9.984-5.01c-.551-.277-.998.06-.998.751v6.261c0 .692.447 1.478.998 1.754l9.984 5.01c.551.276.998-.061.998-.752v-6.261c0-.691-.448-1.477-.998-1.753zm-2.497 5.009l-5.99-3.007c-.275-.138-.499-.53-.499-.876s.224-.514.499-.376l5.99 3.006c.275.139.499.531.499.877s-.223.514-.499.376zm.998-2.004l-6.988-3.507c-.275-.139-.499-.531-.499-.877s.224-.514.499-.376l6.988 3.508c.276.138.499.531.499.876 0 .346-.222.515-.499.376z"/>
    </symbol>
    <symbol id="icon-tags" viewBox="0 0 100 100">
      <title>tags</title>
      <path fill="#EFC75E" d="M50 0c27.613 0 50 22.386 50 50s-22.387 50-50 50c-27.614 0-50-22.386-50-50s22.386-50 50-50z"/><path fill="#E2574C" d="M23.594 32.664c9.478-9.633 18.871-5.424 26.396 1.448 7.521-6.872 16.841-11.158 26.394-1.448 7.445 7.565 7.485 19.724 0 27.25-12.557 11.481-19.12 17.474-22.552 20.601-2.146 1.958-5.395 1.964-7.551.017-3.457-3.123-10.063-9.115-22.688-20.617-7.485-7.527-7.446-19.686.001-27.251z"/><path fill="#fff" d="M15.667 73.668c3-.332 4.667-2 5-5 .333 3 2 4.668 5 5-3 .334-4.667 2-5 5-.333-2.998-2-4.666-5-5zM74 71.002c-.332 2.998-2 4.666-5 5 3 .332 4.668 2 5 4.998.334-2.998 2.001-4.666 5.001-4.998-3-.334-4.667-2.002-5.001-5zm-34-61.001c-.332 2.999-2 4.667-5 5 3 .333 4.668 2 5 4.999.334-2.999 2.001-4.667 5.001-4.999-3-.333-4.667-2.001-5.001-5z"/><path fill="#FCF4DF" d="M67 33.003c5.4-.601 8.4-3.603 9.001-9 .601 5.398 3.601 8.4 9.001 9-5.4.599-8.4 3.6-9.001 8.999-.601-5.398-3.601-8.399-9.001-8.999z"/><path fill="#E66E65" d="M25.001 45.688c0-6.444 5.241-11.686 11.685-11.686.727 0 1.313.588 1.313 1.313s-.588 1.313-1.313 1.313c-4.994 0-9.058 4.064-9.058 9.06 0 .726-.588 1.313-1.313 1.313-.725-.001-1.314-.588-1.314-1.313z"/><path fill="#CB4E44" d="M48.453 78.609c-3.457-3.123-10.062-9.115-22.688-20.617l-.054-.059-1.119-1.02c-4.93-4.959-6.574-11.921-5.01-18.261-3.022 7.047-1.714 15.504 4.01 21.261 12.625 11.503 19.23 17.494 22.689 20.617 2.156 1.947 5.404 1.94 7.551-.017l1.802-1.644c-2.137 1.653-5.142 1.582-7.181-.26z"/><path fill="#F9DDDB" d="M78.783 35.637c-.689-1.048-1.487-2.046-2.399-2.973-.979-.996-1.956-1.836-2.929-2.55-1.51 1.604-3.652 2.578-6.455 2.89 5.4.599 8.4 3.6 9.001 8.999.306-2.744 1.237-4.862 2.782-6.366z"/>
    </symbol>
    <symbol id="icon-lived" viewBox="0 0 25 32">
      <title>lived</title>
      <path fill="#51BBA8" d="M12.492-.005c-6.899 0-12.493 5.418-12.493 12.102 0 .13.062 3.24 1.136 5.458 3.077 6.875 11.346 14.488 11.357 14.449.014.026 8.248-7.545 11.34-14.408.918-1.627 1.154-5.234 1.154-5.5.001-6.683-5.594-12.101-12.494-12.101zm.002 16.004c-1.935 0-3.5-1.566-3.5-3.499 0-1.934 1.565-3.501 3.5-3.501 1.934 0 3.5 1.567 3.5 3.501 0 1.933-1.566 3.499-3.5 3.499z"/><path fill="#2B7D6E" d="M12.494 7c-3.037 0-5.5 2.462-5.5 5.5 0 3.037 2.463 5.499 5.5 5.499s5.5-2.462 5.5-5.499c0-3.038-2.463-5.5-5.5-5.5zm0 8.999c-1.935 0-3.5-1.566-3.5-3.499 0-1.934 1.565-3.501 3.5-3.501 1.934 0 3.5 1.567 3.5 3.501 0 1.933-1.566 3.499-3.5 3.499z"/>
    </symbol>
    <symbol id="icon-worked" viewBox="0 0 20 32">
      <title>worked</title>
      <path fill="#324D5B" d="M9 15v16c0 .553.447 1 1 1s1-.447 1-1v-16h-2z"/><path fill="#E2574C" d="M10 0c5.523 0 10 4.478 10 10s-4.477 10.001-10 10.001c-5.522.001-10-4.479-10-10.001s4.478-10 10-10z"/><path fill="#E87970" d="M13 5.001c1.657 0 3 1.342 3 2.999s-1.343 3-3 3c-1.656 0-3-1.343-3-3 0-1.656 1.344-2.999 3-2.999z"/><path fill="#CB4E44" d="M11 19.002c-5.521 0-10-4.48-10-10.002 0-2.507.929-4.792 2.453-6.547-2.112 1.835-3.453 4.532-3.453 7.547 0 5.522 4.478 10.001 10 10.001 3.016 0 5.713-1.342 7.547-3.453-1.755 1.526-4.04 2.454-6.547 2.454z"/>
    </symbol>
    <symbol id="icon-clock" viewBox="0 0 32 32">
      <title>clock</title>
      <path fill="#FFFFFF" d="M16 .003c8.837 0 16 7.163 16 16s-7.163 16.001-16 16.001-16-7.164-16-16.001 7.163-16 16-16z"/><path fill="#324D5B" d="M23 15.004h-6v-7.002c0-.553-.448-1-1-1s-1 .447-1 1v8c0 .553.448 1 1 1h7c.553 0 1-.447 1-1 0-.55-.447-.998-1-.998z"/><path fill="#E2574C" d="M16 .003c-8.837 0-16 7.163-16 16s7.163 16.001 16 16.001 16-7.164 16-16.001-7.163-16-16-16zm0 29.001c-7.168 0-13-5.832-13-13.001 0-7.168 5.832-13 13-13s13 5.832 13 13c0 7.169-5.832 13.001-13 13.001z"/>
    </symbol>
  </defs>
</svg>
